<?xml version="1.0" encoding="UTF-8"?>
<svg version="1.1" xmlns="http://www.w3.org/2000/svg" width="1920" height="1920">
<path d="M0 0 C0.89242789 -0.00275974 1.78485577 -0.00551949 2.70432693 -0.00836286 C3.67746772 -0.00630754 4.65060851 -0.00425222 5.65323842 -0.00213462 C6.69694865 -0.00388766 7.74065889 -0.0056407 8.81599671 -0.00744686 C12.33639857 -0.01212317 15.85675943 -0.00963716 19.37716305 -0.00721294 C21.91736685 -0.00908009 24.45757036 -0.0113804 26.99777341 -0.01407826 C32.5326277 -0.01893115 38.06746947 -0.02064892 43.60232556 -0.01962215 C51.83285108 -0.01809902 60.0633669 -0.02225496 68.29389053 -0.02749677 C83.84772731 -0.03717564 99.40156079 -0.03998121 114.95540021 -0.04055383 C126.96466236 -0.04101307 138.97392321 -0.04306984 150.98318493 -0.04625446 C154.43789085 -0.04715197 157.89259676 -0.04804179 161.34730268 -0.04892933 C162.20610871 -0.04915038 163.06491475 -0.04937143 163.94974521 -0.04959918 C188.11133124 -0.05575468 212.27291682 -0.0596996 236.43450367 -0.0592559 C237.34573899 -0.05924032 238.2569743 -0.05922474 239.1958228 -0.05920869 C243.81452728 -0.05912558 248.43323177 -0.05902654 253.05193625 -0.05892398 C254.42791738 -0.05889406 254.42791738 -0.05889406 255.83169611 -0.05886354 C257.68674237 -0.05882311 259.54178863 -0.05878131 261.39683489 -0.05873815 C290.26464178 -0.05812526 319.13243692 -0.06563392 348.00024045 -0.07931072 C380.41938958 -0.09466365 412.83853099 -0.10327742 445.25768399 -0.10234749 C448.71301862 -0.10227286 452.16835324 -0.10222415 455.62368786 -0.10219318 C456.4745041 -0.10218152 457.32532033 -0.10216987 458.20191887 -0.10215786 C471.90693621 -0.10212706 485.61194336 -0.10851893 499.31695767 -0.11712544 C513.084943 -0.12559282 526.85291341 -0.12659905 540.6208999 -0.12001612 C548.80452612 -0.11631444 556.98810707 -0.11817124 565.17172851 -0.12795846 C571.27588054 -0.13464314 577.37997885 -0.13092197 583.48413147 -0.12308524 C585.95851848 -0.12154047 588.43291035 -0.12340283 590.90729164 -0.12894531 C594.26147045 -0.13596316 597.61541306 -0.1307449 600.96958363 -0.12238914 C601.93804209 -0.12735732 602.90650055 -0.1323255 603.90430623 -0.13744423 C612.37731529 -0.09259009 618.25161906 1.08471866 624.43725216 7.12649983 C626.86340619 10.7375103 626.69047599 14.04987687 626.69617188 18.32298726 C626.69986835 19.05240493 626.70356481 19.78182261 626.70737329 20.53334385 C626.71738215 22.99065585 626.71312028 25.44773828 626.70899594 27.90506428 C626.71328073 29.67933216 626.71844321 31.45359809 626.72441059 33.22786111 C626.73830872 38.11379308 626.73976623 42.99966289 626.73926735 47.88561171 C626.74090133 53.15084819 626.75402145 58.4160571 626.76580441 63.68127888 C626.7846914 72.80798682 626.79638739 81.93468134 626.80334294 91.06140584 C626.81350003 104.26155722 626.83555456 117.46166798 626.86072885 130.6617983 C626.90134914 152.08264081 626.9338016 173.5034872 626.96044552 194.92435139 C626.96204282 196.2070045 626.96364013 197.4896576 626.96528583 198.81117898 C626.96688473 200.09545498 626.96848363 201.37973098 626.97013098 202.70292443 C626.99281903 220.91150232 627.01745047 239.1200762 627.0444299 257.32864827 C627.04632604 258.60974386 627.04822219 259.89083945 627.05017579 261.21075612 C627.08192347 282.55006214 627.117672 303.88936037 627.15547138 325.22865647 C627.17854255 338.40019752 627.1974855 351.57173325 627.21113812 364.7432875 C627.22064771 373.76338317 627.2334779 382.78346993 627.24894697 391.80355734 C627.2577346 397.01306752 627.2648236 402.22256664 627.26758778 407.43208379 C627.27013067 412.19636919 627.27717404 416.96062545 627.28786003 421.72489935 C627.29091161 423.45296653 627.29225773 425.1810377 627.29177172 426.90910751 C627.29134473 429.24944394 627.29697688 431.58968885 627.30417359 433.9300124 C627.30574749 435.23256317 627.30732138 436.53511393 627.30894297 437.87713593 C627.41293193 441.60714936 627.41293193 441.60714936 628.43725216 445.12649983 C629.42725216 445.45649983 630.41725216 445.78649983 631.43725216 446.12649983 C631.76725216 446.78649983 632.09725216 447.44649983 632.43725216 448.12649983 C633.91228376 448.77036283 635.41905314 449.34231869 636.93725216 449.87649983 C643.09309958 452.22916565 648.75263337 455.44188104 653.43725216 460.12649983 C653.43725216 461.11649983 653.43725216 462.10649983 653.43725216 463.12649983 C654.09725216 463.12649983 654.75725216 463.12649983 655.43725216 463.12649983 C658.06225216 465.50149983 658.06225216 465.50149983 660.43725216 468.12649983 C660.43725216 468.78649983 660.43725216 469.44649983 660.43725216 470.12649983 C661.15912716 470.20899983 661.88100216 470.29149983 662.62475216 470.37649983 C666.02652084 471.28363815 667.891913 472.72660862 670.43725216 475.12649983 C670.43725216 475.78649983 670.43725216 476.44649983 670.43725216 477.12649983 C671.01475216 477.19997639 671.59225216 477.27345296 672.18725216 477.34915608 C677.60538302 479.22104504 681.31693014 485.88257999 683.77318966 490.80228108 C684.75127461 493.22543138 685.6278869 495.64230941 686.43725216 498.12649983 C686.77827802 498.99900541 687.11930387 499.87151099 687.47066385 500.77045614 C688.58961584 504.65551425 688.71543678 508.24145819 688.69172776 512.24507397 C688.69653747 513.4522971 688.69653747 513.4522971 688.70144436 514.68390858 C688.70975786 517.38570044 688.70381533 520.08727141 688.69794858 522.78906697 C688.70096864 524.74370062 688.70485739 526.69833309 688.70954114 528.65296346 C688.71984856 534.02832873 688.71763234 539.40362752 688.71336055 544.77899832 C688.7108983 550.57460841 688.71990125 556.37020228 688.72739804 562.16580647 C688.74016103 573.52162081 688.74193674 584.87741152 688.73959778 596.23323183 C688.73781624 605.46166602 688.73956071 614.69009302 688.74382222 623.91852635 C688.74441741 625.23092486 688.74501259 626.54332336 688.74562582 627.89549152 C688.74653377 629.89310838 688.74744174 631.89072525 688.74835817 633.88834211 C688.75678837 652.46241765 688.76112293 671.03649057 688.75695145 689.61056775 C688.75679508 690.31084567 688.7566387 691.01112359 688.75647758 691.73262205 C688.7556718 695.28193776 688.75482603 698.83125345 688.75396428 702.38056915 C688.75379319 703.08547893 688.75362211 703.79038871 688.75344583 704.5166594 C688.75309918 705.94215835 688.75275065 707.3676573 688.75240025 708.79315625 C688.74704284 730.97476176 688.75497374 753.15632752 688.7734338 775.33792561 C688.79414805 800.2573533 688.80487762 825.17675636 688.80085832 850.09619313 C688.79894398 863.29120417 688.80145648 876.48617898 688.81557286 889.68118352 C688.82746838 900.91415793 688.8289121 912.14707384 688.81678269 923.38004903 C688.81088116 929.11262416 688.80982976 934.84509218 688.82178509 940.57766026 C688.83260034 945.82447405 688.82959255 951.07109073 688.81552341 956.31789513 C688.81286444 958.21690332 688.81528046 960.11592675 688.82325927 962.01492004 C688.8333504 964.5955994 688.82495619 967.17559161 688.81198227 969.75624341 C688.81929162 970.49397195 688.82660097 971.2317005 688.83413181 971.99178445 C688.71324458 983.58804366 682.26977762 994.08167938 674.39818966 1002.23978108 C662.91340364 1013.01437716 651.24907856 1015.43486649 635.93167412 1015.37818211 C634.55500828 1015.38027025 633.17834355 1015.38323414 631.80168125 1015.38699085 C628.01653587 1015.39477773 624.23149254 1015.39011967 620.44634882 1015.38343494 C616.32920782 1015.37836276 612.21208249 1015.38488089 608.0949437 1015.38992161 C600.87840639 1015.39714848 593.661899 1015.39692369 586.4453603 1015.39182729 C575.71425348 1015.38426939 564.98317195 1015.38812611 554.2520653 1015.3942439 C535.08778136 1015.40478251 515.92351074 1015.40385979 496.75922553 1015.39808607 C479.98903305 1015.39305834 463.21884546 1015.39173999 446.44865239 1015.39413136 C444.78114638 1015.39436052 444.78114638 1015.39436052 443.07995337 1015.3945943 C438.56752389 1015.39521696 434.0550944 1015.39585376 429.54266492 1015.39651383 C387.19904858 1015.40263402 344.85544074 1015.39708135 302.51182572 1015.38632004 C264.87604209 1015.37682793 227.240272 1015.37767838 189.60448849 1015.38724202 C147.33764753 1015.39794651 105.07081408 1015.40220067 62.80397195 1015.39601749 C58.29999336 1015.39537604 53.79601477 1015.39475036 49.29203618 1015.39413136 C48.1830103 1015.39397321 47.07398443 1015.39381505 45.93135172 1015.39365211 C29.16928793 1015.39137525 12.40722956 1015.39404125 -4.35483348 1015.39909047 C-23.40945682 1015.4048016 -42.46406472 1015.40339509 -61.51868612 1015.39252898 C-72.18849982 1015.38664545 -82.85828012 1015.38628884 -93.52809297 1015.39382133 C-100.64894474 1015.39829486 -107.76976966 1015.39553537 -114.89061745 1015.38681179 C-118.95185827 1015.38203964 -123.01303259 1015.38045776 -127.07427139 1015.38762376 C-130.76747945 1015.39407412 -134.46056188 1015.39135439 -138.15376075 1015.38126244 C-140.11059642 1015.37829204 -142.06743943 1015.38514285 -144.02426401 1015.392371 C-157.02476156 1015.33648269 -168.06763185 1011.36499106 -177.56274784 1002.12649983 C-177.56274784 1001.46649983 -177.56274784 1000.80649983 -177.56274784 1000.12649983 C-178.16087284 999.87642171 -178.75899784 999.62634358 -179.37524784 999.36868733 C-185.57949652 995.8455604 -188.67275232 987.52998373 -190.74431038 981.03008181 C-192.59766329 972.19041429 -192.10499304 963.0584387 -192.06395328 954.0666396 C-192.06784875 951.70743276 -192.07349117 949.34822826 -192.08072418 946.98902929 C-192.09391846 941.19986615 -192.08859172 935.41092925 -192.07533121 929.62177114 C-192.06048464 922.68280318 -192.06896443 915.74391215 -192.0781114 908.80494132 C-192.0952801 895.21150374 -192.08977761 881.61814695 -192.07475421 868.02471105 C-192.06169383 856.1306316 -192.05650814 844.23658014 -192.05907238 832.34249371 C-192.05923279 831.5530207 -192.05939321 830.76354769 -192.05955848 829.95015125 C-192.06022208 826.74532127 -192.0609245 823.54049131 -192.06168382 820.33566136 C-192.06870452 790.28555819 -192.05322703 760.23550433 -192.02706036 730.18541372 C-192.00393935 703.49152526 -191.99855997 676.79769097 -192.00879276 650.10379475 C-192.0113948 643.26633045 -192.01397982 636.42886613 -192.01639068 629.59140176 C-192.01668813 628.74960993 -192.01698558 627.90781811 -192.01729204 627.04051745 C-192.02490696 604.72803272 -192.01849488 582.41555242 -192.00769466 560.10306966 C-192.00654687 557.70228201 -192.00540369 555.30149436 -192.00426784 552.90070671 C-192.00351259 551.30812289 -192.00274695 549.71553909 -192.00197083 548.12295528 C-191.99631346 536.23468524 -191.99764176 524.34642923 -192.00219905 512.45815915 C-192.00730664 498.94238527 -192.00145462 485.42666386 -191.98130476 471.91090307 C-191.97128647 465.01364778 -191.9659496 458.11647029 -191.97419727 451.21921033 C-191.98124468 444.90736059 -191.97447119 438.59568333 -191.95659364 432.28385635 C-191.95254314 429.99874357 -191.95355905 427.71361512 -191.9601125 425.42850814 C-191.96825292 422.32477518 -191.95796178 419.2216248 -191.94306457 416.11792916 C-191.94980222 415.22892121 -191.95653987 414.33991325 -191.96348169 413.42396566 C-191.85369942 401.61243055 -186.64202861 389.76594408 -178.56274784 381.12649983 C-177.57274784 380.79649983 -176.58274784 380.46649983 -175.56274784 380.12649983 C-175.23274784 379.13649983 -174.90274784 378.14649983 -174.56274784 377.12649983 C-166.7431087 371.09282766 -157.36427142 367.63318001 -147.68774784 366.12649983 C-143.14133133 365.40189466 -141.09624173 364.11637928 -137.56274784 361.12649983 C-136.11997069 360.65880193 -134.6578702 360.24944413 -133.18774784 359.87649983 C-126.87319699 358.18119055 -121.46194803 355.02380692 -115.78540409 351.86868733 C-112.56274784 350.12649983 -112.56274784 350.12649983 -109.56274784 349.12649983 C-109.56366963 347.94759395 -109.56459142 346.76868808 -109.56554115 345.55405778 C-109.58720333 317.5633855 -109.60369053 289.57271387 -109.61381317 261.58203497 C-109.61506386 258.13616322 -109.61635818 254.69029148 -109.61767948 251.24441975 C-109.61794179 250.55841453 -109.6182041 249.8724093 -109.61847436 249.16561604 C-109.62282455 238.0608498 -109.63070854 226.95608874 -109.63990063 215.85132556 C-109.64925523 204.45511679 -109.65473244 193.05891185 -109.65683633 181.66269898 C-109.65814073 175.26235165 -109.66120952 168.86201606 -109.66847789 162.46167248 C-109.67526314 156.43797248 -109.67735967 150.41428907 -109.67585552 144.3905856 C-109.67613071 142.17948379 -109.67812098 139.96838142 -109.68195331 137.75728291 C-109.68692963 134.73815852 -109.68573153 131.71909675 -109.68300235 128.6999709 C-109.68591519 127.82544268 -109.68882804 126.95091447 -109.69182914 126.04988539 C-109.67179122 117.84652941 -109.52720633 112.09095833 -103.56274784 106.12649983 C-102.90274784 106.12649983 -102.24274784 106.12649983 -101.56274784 106.12649983 C-101.56274784 105.46649983 -101.56274784 104.80649983 -101.56274784 104.12649983 C-98.01182266 102.94285811 -94.77457936 102.95862063 -91.07788455 102.93704671 C-89.93846912 102.92460675 -89.93846912 102.92460675 -88.77603519 102.91191548 C-87.12765821 102.89452618 -85.47925666 102.8793563 -83.83084095 102.86613911 C-81.22587735 102.8451162 -78.62103785 102.8180953 -76.01614749 102.7894637 C-69.54895552 102.71962328 -63.08167572 102.66013633 -56.61438358 102.60043782 C-51.14653688 102.54959232 -45.67875816 102.494806 -40.21100605 102.43462056 C-37.63783371 102.40796117 -35.06465531 102.38720134 -32.49142826 102.36661214 C-30.92388974 102.35001745 -29.35635412 102.33314635 -27.78882205 102.31595296 C-27.06777286 102.31176854 -26.34672367 102.30758412 -25.6038245 102.3032729 C-22.29972595 102.54421291 -22.29972595 102.54421291 -19.56274784 101.12649983 C-19.47831587 98.65882818 -19.4583894 96.21949949 -19.48096073 93.75198811 C-19.48402729 92.97947209 -19.48709384 92.20695607 -19.49025333 91.41103047 C-19.49742821 89.72604924 -19.50682834 88.04107639 -19.5181483 86.3561179 C-19.53550398 83.68141821 -19.54582901 81.00677809 -19.55406559 78.33203572 C-19.57853328 70.7240782 -19.61377986 63.1161997 -19.6586951 55.50833577 C-19.68565127 50.85821381 -19.70258501 46.20813932 -19.7135638 41.55795354 C-19.71973347 39.79189632 -19.72968767 38.0258478 -19.74364269 36.25983495 C-19.92813044 12.67457374 -19.92813044 12.67457374 -15.56274784 6.12649983 C-14.90274784 6.12649983 -14.24274784 6.12649983 -13.56274784 6.12649983 C-13.56274784 5.46649983 -13.56274784 4.80649983 -13.56274784 4.12649983 C-12.24274784 3.79649983 -10.92274784 3.46649983 -9.56274784 3.12649983 C-9.56274784 2.46649983 -9.56274784 1.80649983 -9.56274784 1.12649983 C-6.32034335 0.40609769 -3.31945887 0.00126267 0 0 Z " fill="#4D4D4D" transform="translate(711.562747836113,286.8735001683235)"/>
<path d="M0 0 C0.89242789 -0.00275974 1.78485577 -0.00551949 2.70432693 -0.00836286 C3.67746772 -0.00630754 4.65060851 -0.00425222 5.65323842 -0.00213462 C6.69694865 -0.00388766 7.74065889 -0.0056407 8.81599671 -0.00744686 C12.33639857 -0.01212317 15.85675943 -0.00963716 19.37716305 -0.00721294 C21.91736685 -0.00908009 24.45757036 -0.0113804 26.99777341 -0.01407826 C32.5326277 -0.01893115 38.06746947 -0.02064892 43.60232556 -0.01962215 C51.83285108 -0.01809902 60.0633669 -0.02225496 68.29389053 -0.02749677 C83.84772731 -0.03717564 99.40156079 -0.03998121 114.95540021 -0.04055383 C126.96466236 -0.04101307 138.97392321 -0.04306984 150.98318493 -0.04625446 C154.43789085 -0.04715197 157.89259676 -0.04804179 161.34730268 -0.04892933 C162.20610871 -0.04915038 163.06491475 -0.04937143 163.94974521 -0.04959918 C188.11133124 -0.05575468 212.27291682 -0.0596996 236.43450367 -0.0592559 C237.34573899 -0.05924032 238.2569743 -0.05922474 239.1958228 -0.05920869 C243.81452728 -0.05912558 248.43323177 -0.05902654 253.05193625 -0.05892398 C254.42791738 -0.05889406 254.42791738 -0.05889406 255.83169611 -0.05886354 C257.68674237 -0.05882311 259.54178863 -0.05878131 261.39683489 -0.05873815 C290.26464178 -0.05812526 319.13243692 -0.06563392 348.00024045 -0.07931072 C380.41938958 -0.09466365 412.83853099 -0.10327742 445.25768399 -0.10234749 C448.71301862 -0.10227286 452.16835324 -0.10222415 455.62368786 -0.10219318 C456.4745041 -0.10218152 457.32532033 -0.10216987 458.20191887 -0.10215786 C471.90693621 -0.10212706 485.61194336 -0.10851893 499.31695767 -0.11712544 C513.084943 -0.12559282 526.85291341 -0.12659905 540.6208999 -0.12001612 C548.80452612 -0.11631444 556.98810707 -0.11817124 565.17172851 -0.12795846 C571.27588054 -0.13464314 577.37997885 -0.13092197 583.48413147 -0.12308524 C585.95851848 -0.12154047 588.43291035 -0.12340283 590.90729164 -0.12894531 C594.26147045 -0.13596316 597.61541306 -0.1307449 600.96958363 -0.12238914 C601.93804209 -0.12735732 602.90650055 -0.1323255 603.90430623 -0.13744423 C612.37731529 -0.09259009 618.25161906 1.08471866 624.43725216 7.12649983 C626.86340619 10.7375103 626.69047599 14.04987687 626.69617188 18.32298726 C626.69986835 19.05240493 626.70356481 19.78182261 626.70737329 20.53334385 C626.71738215 22.99065585 626.71312028 25.44773828 626.70899594 27.90506428 C626.71328073 29.67933216 626.71844321 31.45359809 626.72441059 33.22786111 C626.73830872 38.11379308 626.73976623 42.99966289 626.73926735 47.88561171 C626.74090133 53.15084819 626.75402145 58.4160571 626.76580441 63.68127888 C626.7846914 72.80798682 626.79638739 81.93468134 626.80334294 91.06140584 C626.81350003 104.26155722 626.83555456 117.46166798 626.86072885 130.6617983 C626.90134914 152.08264081 626.9338016 173.5034872 626.96044552 194.92435139 C626.96204282 196.2070045 626.96364013 197.4896576 626.96528583 198.81117898 C626.96688473 200.09545498 626.96848363 201.37973098 626.97013098 202.70292443 C626.99281903 220.91150232 627.01745047 239.1200762 627.0444299 257.32864827 C627.04632604 258.60974386 627.04822219 259.89083945 627.05017579 261.21075612 C627.08192347 282.55006214 627.117672 303.88936037 627.15547138 325.22865647 C627.17854255 338.40019752 627.1974855 351.57173325 627.21113812 364.7432875 C627.22064771 373.76338317 627.2334779 382.78346993 627.24894697 391.80355734 C627.2577346 397.01306752 627.2648236 402.22256664 627.26758778 407.43208379 C627.27013067 412.19636919 627.27717404 416.96062545 627.28786003 421.72489935 C627.29091161 423.45296653 627.29225773 425.1810377 627.29177172 426.90910751 C627.29134473 429.24944394 627.29697688 431.58968885 627.30417359 433.9300124 C627.30574749 435.23256317 627.30732138 436.53511393 627.30894297 437.87713593 C627.41293193 441.60714936 627.41293193 441.60714936 628.43725216 445.12649983 C629.42725216 445.45649983 630.41725216 445.78649983 631.43725216 446.12649983 C631.76725216 446.78649983 632.09725216 447.44649983 632.43725216 448.12649983 C633.91228376 448.77036283 635.41905314 449.34231869 636.93725216 449.87649983 C643.09309958 452.22916565 648.75263337 455.44188104 653.43725216 460.12649983 C653.43725216 461.11649983 653.43725216 462.10649983 653.43725216 463.12649983 C654.09725216 463.12649983 654.75725216 463.12649983 655.43725216 463.12649983 C658.06225216 465.50149983 658.06225216 465.50149983 660.43725216 468.12649983 C660.43725216 468.78649983 660.43725216 469.44649983 660.43725216 470.12649983 C661.15912716 470.20899983 661.88100216 470.29149983 662.62475216 470.37649983 C666.02652084 471.28363815 667.891913 472.72660862 670.43725216 475.12649983 C670.43725216 475.78649983 670.43725216 476.44649983 670.43725216 477.12649983 C671.01475216 477.19997639 671.59225216 477.27345296 672.18725216 477.34915608 C677.60538302 479.22104504 681.31693014 485.88257999 683.77318966 490.80228108 C684.75127461 493.22543138 685.6278869 495.64230941 686.43725216 498.12649983 C686.77827802 498.99900541 687.11930387 499.87151099 687.47066385 500.77045614 C688.58961584 504.65551425 688.71543678 508.24145819 688.69172776 512.24507397 C688.69653747 513.4522971 688.69653747 513.4522971 688.70144436 514.68390858 C688.70975786 517.38570044 688.70381533 520.08727141 688.69794858 522.78906697 C688.70096864 524.74370062 688.70485739 526.69833309 688.70954114 528.65296346 C688.71984856 534.02832873 688.71763234 539.40362752 688.71336055 544.77899832 C688.7108983 550.57460841 688.71990125 556.37020228 688.72739804 562.16580647 C688.74016103 573.52162081 688.74193674 584.87741152 688.73959778 596.23323183 C688.73781624 605.46166602 688.73956071 614.69009302 688.74382222 623.91852635 C688.74441741 625.23092486 688.74501259 626.54332336 688.74562582 627.89549152 C688.74653377 629.89310838 688.74744174 631.89072525 688.74835817 633.88834211 C688.75678837 652.46241765 688.76112293 671.03649057 688.75695145 689.61056775 C688.75679508 690.31084567 688.7566387 691.01112359 688.75647758 691.73262205 C688.7556718 695.28193776 688.75482603 698.83125345 688.75396428 702.38056915 C688.75379319 703.08547893 688.75362211 703.79038871 688.75344583 704.5166594 C688.75309918 705.94215835 688.75275065 707.3676573 688.75240025 708.79315625 C688.74704284 730.97476176 688.75497374 753.15632752 688.7734338 775.33792561 C688.79414805 800.2573533 688.80487762 825.17675636 688.80085832 850.09619313 C688.79894398 863.29120417 688.80145648 876.48617898 688.81557286 889.68118352 C688.82746838 900.91415793 688.8289121 912.14707384 688.81678269 923.38004903 C688.81088116 929.11262416 688.80982976 934.84509218 688.82178509 940.57766026 C688.83260034 945.82447405 688.82959255 951.07109073 688.81552341 956.31789513 C688.81286444 958.21690332 688.81528046 960.11592675 688.82325927 962.01492004 C688.8333504 964.5955994 688.82495619 967.17559161 688.81198227 969.75624341 C688.81929162 970.49397195 688.82660097 971.2317005 688.83413181 971.99178445 C688.71324458 983.58804366 682.26977762 994.08167938 674.39818966 1002.23978108 C662.91340364 1013.01437716 651.24907856 1015.43486649 635.93167412 1015.37818211 C634.55500828 1015.38027025 633.17834355 1015.38323414 631.80168125 1015.38699085 C628.01653587 1015.39477773 624.23149254 1015.39011967 620.44634882 1015.38343494 C616.32920782 1015.37836276 612.21208249 1015.38488089 608.0949437 1015.38992161 C600.87840639 1015.39714848 593.661899 1015.39692369 586.4453603 1015.39182729 C575.71425348 1015.38426939 564.98317195 1015.38812611 554.2520653 1015.3942439 C535.08778136 1015.40478251 515.92351074 1015.40385979 496.75922553 1015.39808607 C479.98903305 1015.39305834 463.21884546 1015.39173999 446.44865239 1015.39413136 C444.78114638 1015.39436052 444.78114638 1015.39436052 443.07995337 1015.3945943 C438.56752389 1015.39521696 434.0550944 1015.39585376 429.54266492 1015.39651383 C387.19904858 1015.40263402 344.85544074 1015.39708135 302.51182572 1015.38632004 C264.87604209 1015.37682793 227.240272 1015.37767838 189.60448849 1015.38724202 C147.33764753 1015.39794651 105.07081408 1015.40220067 62.80397195 1015.39601749 C58.29999336 1015.39537604 53.79601477 1015.39475036 49.29203618 1015.39413136 C48.1830103 1015.39397321 47.07398443 1015.39381505 45.93135172 1015.39365211 C29.16928793 1015.39137525 12.40722956 1015.39404125 -4.35483348 1015.39909047 C-23.40945682 1015.4048016 -42.46406472 1015.40339509 -61.51868612 1015.39252898 C-72.18849982 1015.38664545 -82.85828012 1015.38628884 -93.52809297 1015.39382133 C-100.64894474 1015.39829486 -107.76976966 1015.39553537 -114.89061745 1015.38681179 C-118.95185827 1015.38203964 -123.01303259 1015.38045776 -127.07427139 1015.38762376 C-130.76747945 1015.39407412 -134.46056188 1015.39135439 -138.15376075 1015.38126244 C-140.11059642 1015.37829204 -142.06743943 1015.38514285 -144.02426401 1015.392371 C-157.02476156 1015.33648269 -168.06763185 1011.36499106 -177.56274784 1002.12649983 C-177.56274784 1001.46649983 -177.56274784 1000.80649983 -177.56274784 1000.12649983 C-178.16087284 999.87642171 -178.75899784 999.62634358 -179.37524784 999.36868733 C-185.57949652 995.8455604 -188.67275232 987.52998373 -190.74431038 981.03008181 C-192.59766329 972.19041429 -192.10499304 963.0584387 -192.06395328 954.0666396 C-192.06784875 951.70743276 -192.07349117 949.34822826 -192.08072418 946.98902929 C-192.09391846 941.19986615 -192.08859172 935.41092925 -192.07533121 929.62177114 C-192.06048464 922.68280318 -192.06896443 915.74391215 -192.0781114 908.80494132 C-192.0952801 895.21150374 -192.08977761 881.61814695 -192.07475421 868.02471105 C-192.06169383 856.1306316 -192.05650814 844.23658014 -192.05907238 832.34249371 C-192.05923279 831.5530207 -192.05939321 830.76354769 -192.05955848 829.95015125 C-192.06022208 826.74532127 -192.0609245 823.54049131 -192.06168382 820.33566136 C-192.06870452 790.28555819 -192.05322703 760.23550433 -192.02706036 730.18541372 C-192.00393935 703.49152526 -191.99855997 676.79769097 -192.00879276 650.10379475 C-192.0113948 643.26633045 -192.01397982 636.42886613 -192.01639068 629.59140176 C-192.01668813 628.74960993 -192.01698558 627.90781811 -192.01729204 627.04051745 C-192.02490696 604.72803272 -192.01849488 582.41555242 -192.00769466 560.10306966 C-192.00654687 557.70228201 -192.00540369 555.30149436 -192.00426784 552.90070671 C-192.00351259 551.30812289 -192.00274695 549.71553909 -192.00197083 548.12295528 C-191.99631346 536.23468524 -191.99764176 524.34642923 -192.00219905 512.45815915 C-192.00730664 498.94238527 -192.00145462 485.42666386 -191.98130476 471.91090307 C-191.97128647 465.01364778 -191.9659496 458.11647029 -191.97419727 451.21921033 C-191.98124468 444.90736059 -191.97447119 438.59568333 -191.95659364 432.28385635 C-191.95254314 429.99874357 -191.95355905 427.71361512 -191.9601125 425.42850814 C-191.96825292 422.32477518 -191.95796178 419.2216248 -191.94306457 416.11792916 C-191.94980222 415.22892121 -191.95653987 414.33991325 -191.96348169 413.42396566 C-191.85369942 401.61243055 -186.64202861 389.76594408 -178.56274784 381.12649983 C-177.57274784 380.79649983 -176.58274784 380.46649983 -175.56274784 380.12649983 C-175.23274784 379.13649983 -174.90274784 378.14649983 -174.56274784 377.12649983 C-166.7431087 371.09282766 -157.36427142 367.63318001 -147.68774784 366.12649983 C-143.14133133 365.40189466 -141.09624173 364.11637928 -137.56274784 361.12649983 C-136.11997069 360.65880193 -134.6578702 360.24944413 -133.18774784 359.87649983 C-126.87319699 358.18119055 -121.46194803 355.02380692 -115.78540409 351.86868733 C-112.56274784 350.12649983 -112.56274784 350.12649983 -109.56274784 349.12649983 C-109.56366963 347.94759395 -109.56459142 346.76868808 -109.56554115 345.55405778 C-109.58720333 317.5633855 -109.60369053 289.57271387 -109.61381317 261.58203497 C-109.61506386 258.13616322 -109.61635818 254.69029148 -109.61767948 251.24441975 C-109.61794179 250.55841453 -109.6182041 249.8724093 -109.61847436 249.16561604 C-109.62282455 238.0608498 -109.63070854 226.95608874 -109.63990063 215.85132556 C-109.64925523 204.45511679 -109.65473244 193.05891185 -109.65683633 181.66269898 C-109.65814073 175.26235165 -109.66120952 168.86201606 -109.66847789 162.46167248 C-109.67526314 156.43797248 -109.67735967 150.41428907 -109.67585552 144.3905856 C-109.67613071 142.17948379 -109.67812098 139.96838142 -109.68195331 137.75728291 C-109.68692963 134.73815852 -109.68573153 131.71909675 -109.68300235 128.6999709 C-109.68591519 127.82544268 -109.68882804 126.95091447 -109.69182914 126.04988539 C-109.67179122 117.84652941 -109.52720633 112.09095833 -103.56274784 106.12649983 C-102.90274784 106.12649983 -102.24274784 106.12649983 -101.56274784 106.12649983 C-101.56274784 105.46649983 -101.56274784 104.80649983 -101.56274784 104.12649983 C-98.01182266 102.94285811 -94.77457936 102.95862063 -91.07788455 102.93704671 C-89.93846912 102.92460675 -89.93846912 102.92460675 -88.77603519 102.91191548 C-87.12765821 102.89452618 -85.47925666 102.8793563 -83.83084095 102.86613911 C-81.22587735 102.8451162 -78.62103785 102.8180953 -76.01614749 102.7894637 C-69.54895552 102.71962328 -63.08167572 102.66013633 -56.61438358 102.60043782 C-51.14653688 102.54959232 -45.67875816 102.494806 -40.21100605 102.43462056 C-37.63783371 102.40796117 -35.06465531 102.38720134 -32.49142826 102.36661214 C-30.92388974 102.35001745 -29.35635412 102.33314635 -27.78882205 102.31595296 C-27.06777286 102.31176854 -26.34672367 102.30758412 -25.6038245 102.3032729 C-22.29972595 102.54421291 -22.29972595 102.54421291 -19.56274784 101.12649983 C-19.47831587 98.65882818 -19.4583894 96.21949949 -19.48096073 93.75198811 C-19.48402729 92.97947209 -19.48709384 92.20695607 -19.49025333 91.41103047 C-19.49742821 89.72604924 -19.50682834 88.04107639 -19.5181483 86.3561179 C-19.53550398 83.68141821 -19.54582901 81.00677809 -19.55406559 78.33203572 C-19.57853328 70.7240782 -19.61377986 63.1161997 -19.6586951 55.50833577 C-19.68565127 50.85821381 -19.70258501 46.20813932 -19.7135638 41.55795354 C-19.71973347 39.79189632 -19.72968767 38.0258478 -19.74364269 36.25983495 C-19.92813044 12.67457374 -19.92813044 12.67457374 -15.56274784 6.12649983 C-14.90274784 6.12649983 -14.24274784 6.12649983 -13.56274784 6.12649983 C-13.56274784 5.46649983 -13.56274784 4.80649983 -13.56274784 4.12649983 C-12.24274784 3.79649983 -10.92274784 3.46649983 -9.56274784 3.12649983 C-9.56274784 2.46649983 -9.56274784 1.80649983 -9.56274784 1.12649983 C-6.32034335 0.40609769 -3.31945887 0.00126267 0 0 Z M-179.00024784 384.62649983 C-186.85360092 394.13065979 -190.03892169 403.94782174 -189.93747795 416.2209155 C-189.94153867 417.19074179 -189.9455994 418.16056809 -189.94978318 419.15978307 C-189.95970296 422.39888819 -189.94831582 425.63755725 -189.93696964 428.87665242 C-189.93971111 431.22659467 -189.94376393 433.57653569 -189.94901329 435.92647368 C-189.95848747 441.70042276 -189.95403672 447.47424339 -189.94367109 453.24818818 C-189.93203497 460.16731513 -189.9378714 467.08639976 -189.94423937 474.00552963 C-189.95615674 487.56086046 -189.95108777 501.11614473 -189.93896109 514.67147298 C-189.9284222 526.53276105 -189.92388595 538.39403326 -189.92525661 550.25532597 C-189.92534064 551.0423089 -189.92542467 551.82929182 -189.92551125 552.64012271 C-189.9258635 555.83477266 -189.92624751 559.0294226 -189.92667682 562.22407254 C-189.93064104 592.18612622 -189.91792756 622.14815188 -189.89715026 652.11019754 C-189.87877751 678.72989652 -189.87296898 705.34956863 -189.87842166 731.96927327 C-189.8787681 733.67881875 -189.8791142 735.38836423 -189.87945995 737.0979097 C-189.87963095 737.94307703 -189.87980195 738.78824435 -189.87997812 739.65902281 C-189.88083167 743.91348447 -189.88165545 748.16794613 -189.88244712 752.42240781 C-189.8826042 753.26174895 -189.88276128 754.1010901 -189.88292312 754.96586583 C-189.88691275 777.21082651 -189.88143825 799.45578461 -189.87293583 821.70074373 C-189.87202879 824.09415296 -189.87112314 826.48756219 -189.8702206 828.88097142 C-189.86961949 830.46868697 -189.86901087 832.05640252 -189.86839469 833.64411806 C-189.86417297 844.71378452 -189.8635952 855.78344591 -189.86550019 866.85311292 C-189.86794261 881.11683084 -189.86387556 895.38052152 -189.84829018 909.64423199 C-189.84094721 916.52310806 -189.83672018 923.4019498 -189.84153354 930.28082913 C-189.84560194 936.57478375 -189.84046723 942.86866046 -189.82790747 949.16260324 C-189.82497322 951.44237594 -189.82542167 953.72215595 -189.82955054 956.00192679 C-189.8346464 959.0959667 -189.82748376 962.18974487 -189.81722343 965.28376645 C-189.82161991 966.17276442 -189.8260164 967.06176239 -189.83054611 967.9776997 C-189.75301489 980.21931071 -185.31824536 992.37100231 -176.56274784 1001.12649983 C-164.63835475 1011.3253328 -153.40404631 1013.43489345 -137.99214733 1013.38097543 C-136.62064257 1013.38336805 -135.24913912 1013.38663501 -133.87763828 1013.39069203 C-130.11145985 1013.39929786 -126.3453813 1013.39549148 -122.57920136 1013.3896363 C-118.48081984 1013.38546224 -114.38245643 1013.39287008 -110.28407931 1013.39878881 C-103.10191462 1013.4075518 -95.91977845 1013.40886257 -88.73760974 1013.40528554 C-78.05741273 1013.39998036 -67.37724333 1013.40607196 -56.69704932 1013.41436847 C-36.51320085 1013.42961626 -16.32936491 1013.43131275 3.85448812 1013.42884544 C19.43913665 1013.42701346 35.02378106 1013.42877039 50.60842907 1013.43306988 C52.84670547 1013.43367228 55.08498186 1013.43427348 57.32325826 1013.43487349 C60.69603706 1013.43578073 64.06881586 1013.4366894 67.44159466 1013.43760584 C98.80361107 1013.44603654 130.16562594 1013.45037024 161.52764332 1013.44619912 C162.71015998 1013.44604274 163.89267665 1013.44588637 165.11102714 1013.44572525 C171.10462154 1013.44491946 177.09821594 1013.44407369 183.09181033 1013.44321195 C184.28217783 1013.44304086 185.47254534 1013.44286977 186.69898458 1013.4426935 C189.10619691 1013.44234685 191.51340923 1013.44199832 193.92062155 1013.44164792 C231.38206633 1013.43628997 268.84348756 1013.44422276 306.30492795 1013.46268147 C348.38393756 1013.48339111 390.4629326 1013.4941262 432.5419476 1013.49010599 C437.02744631 1013.48971063 441.51294501 1013.48934909 445.99844372 1013.48900861 C447.65513406 1013.48887251 447.65513406 1013.48887251 449.3452929 1013.48873366 C466.02772493 1013.48756705 482.71014226 1013.49422081 499.39257061 1013.50482053 C518.36178732 1013.51686086 537.33097159 1013.51844492 556.30018876 1013.50603036 C566.91808192 1013.49939263 577.53589758 1013.50105387 588.15378457 1013.51461887 C595.24509738 1013.52284878 602.33635198 1013.52018483 609.42766004 1013.50864361 C613.46875548 1013.50237274 617.50969942 1013.50082356 621.55078624 1013.51250694 C625.23041065 1013.52304742 628.90975524 1013.51966813 632.5893647 1013.50540241 C634.5292245 1013.50140656 636.46909783 1013.51205454 638.40892869 1013.52337947 C648.51638646 1013.46066471 657.42113275 1011.8316806 666.12475216 1006.56399983 C667.13924435 1005.96458577 668.15373654 1005.36517171 669.19897091 1004.74759358 C669.93760373 1004.21263264 670.67623654 1003.67767171 671.43725216 1003.12649983 C671.43725216 1002.46649983 671.43725216 1001.80649983 671.43725216 1001.12649983 C672.42725216 1000.79649983 673.41725216 1000.46649983 674.43725216 1000.12649983 C683.00130192 990.11192657 686.59544756 980.10187795 686.57426655 967.05033368 C686.57824429 965.84997325 686.57824429 965.84997325 686.58230239 964.62536311 C686.58997259 961.93915583 686.59055369 959.25299443 686.59115231 956.56677693 C686.59516841 954.62324425 686.59960688 952.6797124 686.60443187 950.73618156 C686.61638634 945.39136278 686.62204319 940.04655303 686.62661302 934.70172352 C686.63257323 928.93875842 686.64418188 923.17580409 686.65490353 917.41284627 C686.67941559 903.49452015 686.69405173 889.57619048 686.7069636 875.65784943 C686.71067602 871.72688888 686.7146492 867.79592868 686.71871626 863.86496848 C686.74395023 839.4539768 686.76601916 815.0429852 686.77844441 790.63198346 C686.78136561 784.97895113 686.78433317 779.32591883 686.78734982 773.67288655 C686.78772073 772.97058723 686.78809164 772.2682879 686.78847379 771.54470678 C686.80062862 748.77579051 686.8315736 726.00695154 686.87327134 703.23807157 C686.91729147 679.1570774 686.94298067 655.07612935 686.94836497 630.9950946 C686.95177922 617.87145794 686.96353646 604.74794331 686.99646771 591.62434453 C687.02446364 580.44929002 687.03546938 569.27438257 687.02427225 558.09929572 C687.01908481 552.39854974 687.0219786 546.69811174 687.04673779 540.99741048 C687.06923044 535.77495517 687.06848989 530.5530291 687.04953392 525.33056451 C687.04673401 523.44493664 687.05233188 521.55927287 687.06734686 519.6737027 C687.18268309 504.24185778 684.48880253 492.43915261 673.40600216 481.03665608 C663.94436329 472.09140947 653.32675009 467.78844627 640.30684292 467.87596005 C639.52504542 467.87316238 638.74324792 467.8703647 637.93775958 467.86748224 C635.32630439 467.86054101 632.71508568 467.86777186 630.103634 467.87494344 C628.20914656 467.87280409 626.31465996 467.86977809 624.42017519 467.86594301 C619.22034847 467.85790782 614.02059375 467.86220749 608.82076728 467.86846179 C603.21060833 467.87299638 597.60046308 467.86595502 591.99030697 467.86015767 C582.27053472 467.85152548 572.55078068 467.84971632 562.83100522 467.85210484 C548.7691318 467.8552016 534.70729867 467.84356697 520.64543539 467.82755505 C497.81937062 467.80159312 474.99330777 467.78154122 452.16723263 467.76810139 C451.14299718 467.76749234 451.14299718 467.76749234 450.09807011 467.76687099 C434.16378827 467.75744129 418.22950786 467.7505762 402.29522336 467.7481429 C401.60967718 467.74803633 400.924131 467.74792977 400.21781069 467.74781998 C396.76083273 467.7472868 393.30385477 467.74677206 389.8468768 467.7462586 C389.16363075 467.74615639 388.4803847 467.74605418 387.77643422 467.74594888 C386.39736495 467.74574332 385.01829567 467.74554076 383.6392264 467.74534121 C360.20970104 467.74186482 336.78022992 467.72319177 313.35072386 467.6905461 C299.32209787 467.67161725 285.29358386 467.6656788 271.26494861 467.67636327 C261.6556742 467.68267535 252.0464802 467.67466168 242.43722343 467.65530916 C236.89093151 467.64461174 231.34483476 467.64050198 225.79854405 467.65378064 C220.72198505 467.66581292 215.64579239 467.65950976 210.56926531 467.63858865 C208.73223064 467.6342789 206.89516511 467.63673864 205.05815202 467.64662983 C202.56087921 467.65910064 200.06487207 467.64694334 197.5676614 467.62872189 C196.85456974 467.6381973 196.14147807 467.6476727 195.40677756 467.65743524 C188.76540411 467.55976472 183.68088883 465.20596796 178.87475216 460.75149983 C177.66818966 459.45212483 177.66818966 459.45212483 176.43725216 458.12649983 C175.28201283 457.11332009 174.114575 456.11393188 172.93725216 455.12649983 C167.90434946 450.85615814 163.65974222 446.1934879 159.43725216 441.12649983 C156.77863691 438.32795745 154.03045832 435.77204555 151.06225216 433.31399983 C148.61290104 431.24103918 146.49005632 429.11137056 144.42821896 426.65530843 C139.5390203 421.00346475 134.23604613 415.76097506 128.95678341 410.47806233 C127.85528714 409.37334603 126.75386327 408.26855754 125.6525079 407.16370076 C123.35896792 404.86421303 121.06341156 402.56676039 118.76659787 400.2705428 C115.82608216 397.33012936 112.89254604 394.38285532 109.96066391 391.43383664 C107.69498979 389.15705106 105.42479244 386.88481777 103.15329182 384.61384648 C102.06922998 383.52860655 100.98678479 382.44174917 99.9060117 381.35323399 C98.39875239 379.83617678 96.88528877 378.32558672 95.37011349 376.81644124 C94.51186474 375.95676747 93.65361599 375.0970937 92.76935971 374.21136922 C89.39611037 371.19573458 86.79820558 369.87752408 82.26164639 369.87202424 C81.43203444 369.86619204 80.60242248 369.86035985 79.74767077 369.85435092 C78.38835743 369.86001991 78.38835743 369.86001991 77.00158322 369.86580342 C76.03474685 369.86197787 75.06791048 369.85815233 74.07177603 369.85421085 C70.82310383 369.84386962 67.574608 369.84787525 64.32592404 369.85184163 C62.00000481 369.84749559 59.67408701 369.84231281 57.34817135 369.83635396 C51.02134191 369.82293621 44.69457211 369.82238873 38.36773121 369.82491726 C32.41670034 369.82612095 26.46567955 369.81991108 20.51465172 369.8144838 C7.99963575 369.80360279 -4.51535329 369.80577248 -17.03037077 369.81186865 C-28.4613291 369.81702949 -39.89220199 369.80580542 -51.32314342 369.78677043 C-63.07094499 369.76735859 -74.81870621 369.75914244 -86.56652391 369.76289368 C-93.15758576 369.76470456 -99.74856949 369.76209036 -106.33961856 369.74817914 C-112.54483182 369.73557361 -118.7498749 369.73757085 -124.95508564 369.75059003 C-127.22698005 369.75294999 -129.49888653 369.75024202 -131.77076709 369.7419669 C-150.16132846 369.67983758 -165.6747641 370.19261171 -179.00024784 384.62649983 Z " fill="#EFEFEF" transform="translate(711.562747836113,286.8735001683235)"/>
<path d="M0 0 C1.05384048 -0.00465992 2.10768096 -0.00931984 3.19345599 -0.01412097 C6.74842987 -0.02613549 10.3030261 -0.01665045 13.85800362 -0.00736332 C16.42295825 -0.0115334 18.98791104 -0.01700911 21.55286038 -0.02368313 C27.14181032 -0.03607243 32.73067634 -0.03725275 38.31963539 -0.0311327 C46.63059253 -0.02205623 54.94147181 -0.03006191 63.25242296 -0.04142394 C78.09482291 -0.06111348 92.93718798 -0.06343387 107.77959788 -0.05822874 C120.76951479 -0.0536754 133.75941787 -0.05426594 146.74933434 -0.06006908 C148.49032038 -0.06082594 150.23130642 -0.06158192 151.97229246 -0.06233703 C154.59565697 -0.0634822 157.21902147 -0.06463207 159.84238597 -0.06579627 C184.23974825 -0.07650503 208.63710591 -0.08122269 233.0344696 -0.07332611 C233.95460208 -0.07302894 234.87473455 -0.07273176 235.82274982 -0.07242559 C243.29534918 -0.06997653 250.76794848 -0.06736501 258.24054777 -0.06474145 C287.39032747 -0.05463868 316.54004958 -0.06299348 345.68982124 -0.086236 C378.42540334 -0.11229531 411.16095076 -0.12516005 443.89654362 -0.11804825 C447.38558014 -0.11733217 450.87461666 -0.11665778 454.36365318 -0.1160078 C455.65232589 -0.11575309 455.65232589 -0.11575309 456.96703238 -0.11549323 C469.94842185 -0.11318808 482.92977917 -0.12117757 495.91116142 -0.13429928 C510.67112532 -0.14919201 525.43101376 -0.15007861 540.19097601 -0.13222837 C548.45463231 -0.12264655 556.71811274 -0.12413842 564.9817574 -0.14146306 C571.14550408 -0.15315026 577.30905245 -0.14401784 583.47278203 -0.12664068 C585.97139389 -0.12285447 588.47002686 -0.12587727 590.96862005 -0.13625234 C594.35572017 -0.14932092 597.74187806 -0.13792838 601.12893677 -0.12025452 C602.1070213 -0.12990503 603.08510583 -0.13955554 604.09282929 -0.14949849 C610.15606926 -0.08419842 613.81066967 0.6790872 618.69030952 4.38031673 C622.54817541 8.84000791 623.18925266 12.04186534 623.18250084 17.86530781 C623.18711622 18.60160831 623.19173159 19.3379088 623.19648683 20.09652144 C623.20708043 22.56545762 623.18912671 25.03335175 623.17132759 27.50223446 C623.17307188 29.28932903 623.17657418 31.07642261 623.18168426 32.86351073 C623.190636 37.77556539 623.17461779 42.68727175 623.15457201 47.59928203 C623.13731433 52.8957495 623.14314252 58.19219698 623.14618111 63.48868465 C623.14827953 72.66561577 623.13571882 81.84243322 623.11322975 91.01933575 C623.08073543 104.2876131 623.07030536 117.55583542 623.06527779 130.82414825 C623.05652111 152.35055199 623.02989539 173.87689513 622.99206734 195.40326595 C622.95535691 216.31537224 622.9270404 237.22746208 622.91003609 258.13959408 C622.90898519 259.42839983 622.9079343 260.71720558 622.90685156 262.04506604 C622.90163145 268.51056092 622.89657661 274.9760559 622.89160395 281.44155097 C622.85013031 335.0878485 622.77937456 388.73407873 622.69030952 442.38031673 C612.46030952 442.38031673 602.23030952 442.38031673 591.69030952 442.38031673 C591.69030952 306.75031673 591.69030952 171.12031673 591.69030952 31.38031673 C399.96030952 31.38031673 208.23030952 31.38031673 10.69030952 31.38031673 C10.69030952 54.48031673 10.69030952 77.58031673 10.69030952 101.38031673 C17.0493354 101.3736549 23.40836128 101.36699306 29.96008492 101.36012936 C71.95039596 101.31714095 113.94070589 101.27749935 155.93103218 101.25328732 C156.64748413 101.25287314 157.36393609 101.25245897 158.1020987 101.25203225 C173.67225295 101.24305368 189.24240749 101.23474311 204.81256247 101.22712075 C212.44808108 101.22337871 220.08359962 101.21948905 227.71911812 101.21552181 C228.47894698 101.21512954 229.23877584 101.21473726 230.02162981 101.21433309 C254.65314362 101.20154737 279.28463679 101.17901219 303.9161381 101.15142507 C329.22664559 101.12312894 354.53714166 101.10466078 379.8476647 101.09857176 C383.4219932 101.09770729 386.99632165 101.09673038 390.5706501 101.09568501 C391.62587642 101.0953816 391.62587642 101.0953816 392.70242044 101.09507207 C404.02994392 101.0915259 415.35743211 101.07760898 426.68494119 101.05982063 C438.07087776 101.04216161 449.45676869 101.03565512 460.84272224 101.0398126 C467.01271584 101.04173822 473.18260576 101.03874105 479.35258102 101.02270031 C484.99931198 101.00812681 490.64586928 101.0073479 496.29260814 101.01762005 C498.33715498 101.01889007 500.38171254 101.01506305 502.42623818 101.00566719 C505.20326667 100.99364543 507.97966657 101.00010648 510.75668526 101.01117325 C511.55228098 101.00329221 512.3478767 100.99541117 513.16758138 100.98729131 C518.62584052 101.03651487 522.70630254 102.11007199 527.69030952 104.38031673 C531.66999618 108.56408988 532.81550222 111.12044015 532.81335735 116.79576206 C532.8153484 117.95274809 532.81733945 119.10973413 532.81939083 120.30178034 C532.81647799 121.58385855 532.81356515 122.86593675 532.81056404 124.18686581 C532.81099976 125.55390104 532.81187468 126.92093619 532.81315321 128.2879709 C532.81539805 132.05738373 532.81137703 135.82676835 532.80637515 139.59617758 C532.80207068 143.65616673 532.80351707 147.71615419 532.80427742 151.77614498 C532.80480266 158.81464295 532.80165588 165.85313167 532.79603958 172.89162731 C532.78792455 183.06820459 532.78530936 193.24477739 532.78405159 203.42135756 C532.78186108 219.9307918 532.775201 236.44022111 532.76574898 252.94965267 C532.75657485 268.99034252 532.74949402 285.03103104 532.74524117 301.07172298 C532.74497844 302.05989307 532.74471572 303.04806316 532.74444503 304.0661778 C532.74314003 309.02336411 532.74187631 313.98055043 532.74063313 318.93773675 C532.73026053 360.085267 532.71236769 401.23279123 532.69030952 442.38031673 C522.46030952 442.38031673 512.23030952 442.38031673 501.69030952 442.38031673 C501.69030952 340.41031673 501.69030952 238.44031673 501.69030952 133.38031673 C310.29030952 133.38031673 118.89030952 133.38031673 -78.30969048 133.38031673 C-78.30969048 203.34031673 -78.30969048 273.30031673 -78.30969048 345.38031673 C-88.86969048 345.38031673 -99.42969048 345.38031673 -110.30969048 345.38031673 C-110.42276475 315.96110851 -110.51226137 286.54193368 -110.56501712 257.12255266 C-110.57127052 253.64792678 -110.57774215 250.17330134 -110.58434868 246.69867611 C-110.58566023 246.00695197 -110.58697178 245.31522782 -110.58832308 244.60254234 C-110.6100691 233.40785475 -110.64948613 222.21329578 -110.69545446 211.01868445 C-110.74224163 199.52868072 -110.76961645 188.03876741 -110.78013295 176.54867029 C-110.7866526 170.09618897 -110.80198078 163.64399919 -110.83834076 157.19161129 C-110.87229031 151.11773667 -110.88274527 145.04427356 -110.87522888 138.97031307 C-110.87660386 136.74187134 -110.88654214 134.51341577 -110.90571785 132.28505611 C-110.93063897 129.23952352 -110.92459834 126.19553937 -110.91096306 123.14997005 C-110.92552727 122.27057278 -110.94009147 121.39117551 -110.95509702 120.48512983 C-110.8808886 114.34229698 -109.30729394 110.09801528 -105.30969048 105.38031673 C-100.82676301 101.55101676 -96.09523523 100.80898417 -90.35485649 100.92621517 C-89.5930558 100.92563107 -88.83125511 100.92504696 -88.04636955 100.92444515 C-85.55163323 100.92721125 -83.05812187 100.95823111 -80.56359673 100.98969173 C-78.82482875 100.99715942 -77.0860523 101.00284986 -75.34727287 101.00684261 C-70.78834283 101.02205749 -66.22992893 101.06130302 -61.67120171 101.10565853 C-57.01235751 101.14670114 -52.35342928 101.16487276 -47.6944561 101.18500423 C-38.56597511 101.22780173 -29.43787584 101.29600229 -20.30969048 101.38031673 C-20.32079353 100.27055477 -20.33189659 99.16079281 -20.34333611 98.0174017 C-20.44483969 87.54208985 -20.51971716 77.06687822 -20.56875134 66.59118557 C-20.59480821 61.20590827 -20.63013521 55.82102903 -20.68688774 50.4359808 C-20.74134639 45.23585268 -20.77114041 40.03610665 -20.78407669 34.83571529 C-20.79329168 32.85501245 -20.81128662 30.87432975 -20.83834076 28.89379025 C-20.87481534 26.11215222 -20.87962817 23.33207856 -20.87731743 20.55023861 C-20.89529381 19.73743435 -20.91327019 18.92463009 -20.93179131 18.0871954 C-20.8791021 12.19781639 -19.31323351 7.79012301 -15.30969048 3.38031673 C-10.56045202 -0.47049317 -5.82466255 -0.03993271 0 0 Z " fill="#4E4E4E" transform="translate(714.3096904754639,289.61968326568604)"/>
<path d="M0 0 C0.92071289 0.00418945 1.84142578 0.00837891 2.79003906 0.01269531 C13.85796579 0.19439023 23.99080757 2.16778665 33.875 7.3125 C34.71160156 7.70953125 35.54820312 8.1065625 36.41015625 8.515625 C56.72149968 18.68590919 68.59388526 35.80715298 75.74609375 56.87890625 C80.67630774 76.42975483 75.96057575 97.3771184 65.875 114.3125 C54.86624141 131.60285198 40.00445383 141.78858222 20.875 148.3125 C20.10027344 148.57933594 19.32554687 148.84617187 18.52734375 149.12109375 C0.32137727 154.20753911 -20.31299766 148.89193087 -36.3125 140.0625 C-46.01993819 134.14083481 -53.4591846 126.45931395 -60.125 117.3125 C-60.59679687 116.66796875 -61.06859375 116.0234375 -61.5546875 115.359375 C-72.8602777 98.64676339 -73.82531534 78.10354744 -71.73046875 58.6484375 C-69.17175299 46.66374302 -62.31505085 34.32858602 -54.125 25.3125 C-53.48304688 24.57902344 -52.84109375 23.84554687 -52.1796875 23.08984375 C-38.76584152 8.66129724 -19.72454223 -0.12287183 0 0 Z " fill="#EDEDED" transform="translate(775.125,873.6875)"/>
<path d="M0 0 C136.62 0 273.24 0 414 0 C414 10.56 414 21.12 414 32 C277.38 32 140.76 32 0 32 C0 21.44 0 10.88 0 0 Z " fill="#515151" transform="translate(719,473)"/>
<path d="M0 0 C1.0228862 0.00273422 1.0228862 0.00273422 2.06643677 0.00552368 C12.62701259 0.05299563 22.56730369 0.62897562 32.8125 3.3125 C33.4504248 3.47347168 34.08834961 3.63444336 34.74560547 3.80029297 C51.9964136 8.25308029 67.94088409 16.16889005 81.8125 27.3125 C82.42577148 27.79702637 83.03904297 28.28155273 83.67089844 28.78076172 C105.70194722 46.35729197 124.67928061 73.35588221 129.203125 101.765625 C129.35601498 103.2231761 129.48851126 104.68305326 129.59765625 106.14453125 C129.83646592 108.55433795 130.33767373 110.82697009 130.875 113.1875 C131.8125 118.3125 131.8125 118.3125 131.8125 129.3125 C122.2425 129.3125 112.6725 129.3125 102.8125 129.3125 C102.750625 126.87875 102.68875 124.445 102.625 121.9375 C101.36487163 95.92358236 88.464421 71.3539077 69.32470703 53.96044922 C56.3901329 42.74266867 41.27664544 35.62324435 24.8125 31.3125 C23.56533203 30.94511719 23.56533203 30.94511719 22.29296875 30.5703125 C13.43282876 28.30484763 3.87889678 29.0734152 -5.1875 29.3125 C-6.99734375 29.35697266 -6.99734375 29.35697266 -8.84375 29.40234375 C-27.57927173 30.35303235 -44.50005294 37.91328736 -59.1875 49.3125 C-60.07824219 49.97765625 -60.96898437 50.6428125 -61.88671875 51.328125 C-80.85976329 66.04083457 -94.3207162 88.7850772 -97.50390625 112.68847656 C-98.16076594 118.22397449 -98.67187441 123.75960899 -99.1875 129.3125 C-108.4275 129.3125 -117.6675 129.3125 -127.1875 129.3125 C-128.47699388 97.07515296 -115.89709127 66.33550383 -94.49853516 42.42529297 C-69.47150061 15.40514242 -37.03058708 -0.15701533 0 0 Z " fill="#EDEDED" transform="translate(775.1875,1057.6875)"/>
<path d="M0 0 C94.05 0 188.1 0 285 0 C285 9.24 285 18.48 285 28 C190.95 28 96.9 28 0 28 C0 18.76 0 9.52 0 0 Z " fill="#EDEDED" transform="translate(990,1156)"/>
<path d="M0 0 C94.05 0 188.1 0 285 0 C285 9.24 285 18.48 285 28 C190.95 28 96.9 28 0 28 C0 18.76 0 9.52 0 0 Z " fill="#EEEEEE" transform="translate(990,1066)"/>
<path d="M0 0 C8.11577683 7.42584502 14.27079906 18.90224515 15.1484375 29.87890625 C15.55382876 45.83510607 11.5334068 57.44736005 0.68359375 69.22265625 C-4.25618319 73.94251161 -9.84778252 76.82480843 -16.12890625 79.41015625 C-17.02996094 79.78398438 -17.93101562 80.1578125 -18.859375 80.54296875 C-29.50271078 83.36593236 -42.86923557 82.87641455 -52.6953125 77.88671875 C-64.75161249 70.57166033 -74.29782405 60.27730817 -78.12890625 46.41015625 C-78.58803056 42.81769158 -78.6526159 39.27899733 -78.62890625 35.66015625 C-78.62358887 34.20416016 -78.62358887 34.20416016 -78.61816406 32.71875 C-78.43903478 24.96167308 -77.15636178 19.14572843 -73.12890625 12.41015625 C-72.46890625 11.29640625 -71.80890625 10.18265625 -71.12890625 9.03515625 C-70.46890625 8.16890625 -69.80890625 7.30265625 -69.12890625 6.41015625 C-68.07703125 4.95609375 -68.07703125 4.95609375 -67.00390625 3.47265625 C-49.46658983 -16.89843386 -20.09008867 -15.00305704 0 0 Z " fill="#4E4E4E" transform="translate(809.12890625,913.58984375)"/>
<path d="M0 0 C61.05 0 122.1 0 185 0 C185 10.56 185 21.12 185 32 C123.95 32 62.9 32 0 32 C0 21.44 0 10.88 0 0 Z " fill="#515151" transform="translate(948,559)"/>
<path d="M0 0 C52.8 0 105.6 0 160 0 C160 9.24 160 18.48 160 28 C107.2 28 54.4 28 0 28 C0 18.76 0 9.52 0 0 Z " fill="#EFEFEF" transform="translate(990,976)"/>
<path d="M0 0 C12.12604898 3.99246446 12.12604898 3.99246446 16 8 C16 8.66 16 9.32 16 10 C16.86625 10.11021484 16.86625 10.11021484 17.75 10.22265625 C23.16813085 12.09454521 26.87967798 18.75608015 29.3359375 23.67578125 C30.31402245 26.09893155 31.19063473 28.51580957 32 31 C32.34102585 31.87250558 32.68205171 32.74501116 33.03341168 33.6439563 C34.15236368 37.52901442 34.27818462 41.11495835 34.25447559 45.11857414 C34.25928531 46.32579727 34.25928531 46.32579727 34.26419219 47.55740875 C34.2725057 50.25920061 34.26656316 52.96077157 34.26069641 55.66256714 C34.26371648 57.61720079 34.26760523 59.57183326 34.27228898 61.52646363 C34.2825964 66.9018289 34.28038017 72.27712769 34.27610838 77.65249848 C34.27364614 83.44810857 34.28264908 89.24370245 34.29014587 95.03930664 C34.30290887 106.39512098 34.30468457 117.75091169 34.30234561 129.106732 C34.30056408 138.33516619 34.30230855 147.56359319 34.30657005 156.79202652 C34.30716524 158.10442502 34.30776043 159.41682353 34.30837366 160.76899169 C34.30928161 162.76660855 34.31018957 164.76422542 34.31110601 166.76184228 C34.31953621 185.33591782 34.32387077 203.90999074 34.31969929 222.48406792 C34.31954291 223.18434584 34.31938654 223.88462376 34.31922542 224.60612222 C34.31841963 228.15543792 34.31757386 231.70475362 34.31671212 235.25406931 C34.31654103 235.9589791 34.31636994 236.66388888 34.31619367 237.39015957 C34.31584702 238.81565852 34.31549849 240.24115747 34.31514808 241.66665641 C34.30979068 263.84826192 34.31772157 286.02982769 34.33618164 308.21142578 C34.35689589 333.13085347 34.36762545 358.05025653 34.36360615 382.9696933 C34.36169181 396.16470434 34.36420432 409.35967915 34.37832069 422.55468369 C34.39021621 433.7876581 34.39165994 445.02057401 34.37953053 456.2535492 C34.373629 461.98612433 34.37257759 467.71859235 34.38453293 473.45116043 C34.39534817 478.69797422 34.39234039 483.9445909 34.37827124 489.1913953 C34.37561228 491.09040349 34.37802829 492.98942692 34.38600711 494.88842021 C34.39609824 497.46909957 34.38770402 500.04909178 34.37473011 502.62974358 C34.38203946 503.36747212 34.3893488 504.10520067 34.39687964 504.86528462 C34.27599242 516.46154383 27.83252546 526.95517955 19.9609375 535.11328125 C8.47615148 545.88787732 -3.1881736 548.30836666 -18.50557804 548.25168228 C-19.88224388 548.25377042 -21.25890862 548.25673431 -22.63557091 548.26049101 C-26.4207163 548.2682779 -30.20575963 548.26361984 -33.99090334 548.25693511 C-38.10804435 548.25186293 -42.22516968 548.25838106 -46.34230846 548.26342177 C-53.55884577 548.27064864 -60.77535317 548.27042386 -67.99189186 548.26532745 C-78.72299868 548.25776956 -89.45408022 548.26162628 -100.18518686 548.26774407 C-119.3494708 548.27828267 -138.51374142 548.27735995 -157.67802663 548.27158624 C-174.44821911 548.2665585 -191.2184067 548.26524016 -207.98859978 548.26763153 C-209.65610579 548.26786069 -209.65610579 548.26786069 -211.35729879 548.26809447 C-215.86972828 548.26871713 -220.38215776 548.26935393 -224.89458724 548.270014 C-267.23820358 548.27613419 -309.58181142 548.27058152 -351.92542645 548.2598202 C-389.56121007 548.2503281 -427.19698017 548.25117855 -464.83276367 548.26074219 C-507.09960463 548.27144668 -549.36643809 548.27570083 -591.63328022 548.26951766 C-596.13725881 548.26887621 -600.6412374 548.26825053 -605.14521599 548.26763153 C-606.25424186 548.26747338 -607.36326773 548.26731522 -608.50590045 548.26715227 C-625.26796424 548.26487542 -642.03002261 548.26754142 -658.79208565 548.27259064 C-677.84670898 548.27830176 -696.90131688 548.27689525 -715.95593829 548.26602915 C-726.62575198 548.26014562 -737.29553228 548.259789 -747.96534513 548.2673215 C-755.08619691 548.27179503 -762.20702183 548.26903554 -769.32786962 548.26031196 C-773.38911043 548.2555398 -777.45028475 548.25395793 -781.51152355 548.26112393 C-785.20473161 548.26757429 -788.89781405 548.26485456 -792.59101291 548.2547626 C-794.54784858 548.2517922 -796.5046916 548.25864302 -798.46151617 548.26587117 C-811.71046408 548.20891478 -822.14215014 544.05856473 -832 535 C-831.67 534.34 -831.34 533.68 -831 533 C-830.5153125 533.38671875 -830.030625 533.7734375 -829.53125 534.171875 C-817.63514349 543.41423468 -807.35615831 545.30669637 -792.42939949 545.25447559 C-791.05789474 545.25686821 -789.68639128 545.26013518 -788.31489044 545.26419219 C-784.54871201 545.27279803 -780.78263346 545.26899165 -777.01645353 545.26313647 C-772.91807201 545.25896241 -768.81970859 545.26637025 -764.72133148 545.27228898 C-757.53916679 545.28105197 -750.35703061 545.28236273 -743.17486191 545.27878571 C-732.49466489 545.27348053 -721.8144955 545.27957213 -711.13430149 545.28786864 C-690.95045301 545.30311643 -670.76661707 545.30481292 -650.58276404 545.30234561 C-634.99811552 545.30051363 -619.4134711 545.30227056 -603.82882309 545.30657005 C-601.5905467 545.30717245 -599.3522703 545.30777365 -597.11399391 545.30837366 C-593.7412151 545.3092809 -590.3684363 545.31018957 -586.9956575 545.31110601 C-555.63364109 545.31953671 -524.27162623 545.3238704 -492.90960884 545.31969929 C-491.72709218 545.31954291 -490.54457552 545.31938654 -489.32622502 545.31922542 C-483.33263062 545.31841963 -477.33903623 545.31757386 -471.34544183 545.31671212 C-470.15507433 545.31654103 -468.96470683 545.31636994 -467.73826758 545.31619367 C-465.33105526 545.31584702 -462.92384293 545.31549849 -460.51663061 545.31514808 C-423.05518584 545.30979013 -385.5937646 545.31772292 -348.13232422 545.33618164 C-306.0533146 545.35689128 -263.97431956 545.36762637 -221.89530456 545.36360615 C-217.40980586 545.3632108 -212.92430715 545.36284926 -208.43880844 545.36250877 C-206.7821181 545.36237268 -206.7821181 545.36237268 -205.09195927 545.36223383 C-188.40952723 545.36106722 -171.72710991 545.36772098 -155.04468155 545.37832069 C-136.07546485 545.39036103 -117.10628057 545.39194509 -98.1370634 545.37953053 C-87.51917024 545.3728928 -76.90135459 545.37455404 -66.2834676 545.38811904 C-59.19215479 545.39634895 -52.10090018 545.393685 -45.00959212 545.38214377 C-40.96849668 545.37587291 -36.92755274 545.37432373 -32.88646592 545.38600711 C-29.20684151 545.39654759 -25.52749692 545.3931683 -21.84788746 545.37890258 C-19.90802766 545.37490673 -17.96815433 545.38555471 -16.02832347 545.39687964 C-6.50715598 545.3378027 2.48037566 544.20502119 10.5625 538.8125 C14.83941606 536 14.83941606 536 17 536 C17 535.34 17 534.68 17 534 C18.051875 533.01 18.051875 533.01 19.125 532 C26.74353585 524.7070426 30.7709054 514.62480527 31.12995183 504.24213922 C31.13734485 502.80272116 31.13935041 501.363269 31.13701439 499.92383385 C31.14099213 498.72347342 31.14099213 498.72347342 31.14505023 497.49886328 C31.15272042 494.81265599 31.15330153 492.12649459 31.15390015 489.4402771 C31.15791625 487.49674442 31.16235472 485.55321257 31.1671797 483.60968173 C31.17913418 478.26486295 31.18479102 472.9200532 31.18936086 467.57522368 C31.19532107 461.81225859 31.20692972 456.04930426 31.21765137 450.28634644 C31.24216343 436.36802032 31.25679956 422.44969065 31.26971143 408.5313496 C31.27342385 404.60038905 31.27739703 400.66942885 31.2814641 396.73846865 C31.30669807 372.32747697 31.328767 347.91648537 31.34119225 323.50548363 C31.34411345 317.8524513 31.347081 312.199419 31.35009766 306.54638672 C31.35046857 305.84408739 31.35083947 305.14178807 31.35122162 304.41820695 C31.36337646 281.64929067 31.39432144 258.88045171 31.43601918 236.11157174 C31.48003931 212.03057757 31.50572851 187.94962952 31.51111281 163.86859477 C31.51452705 150.74495811 31.52628429 137.62144348 31.55921555 124.4978447 C31.58721148 113.32279019 31.59821722 102.14788274 31.58702008 90.97279589 C31.58183264 85.2720499 31.58472644 79.57161191 31.60948563 73.87091064 C31.63197828 68.64845533 31.63123772 63.42652927 31.61228175 58.20406468 C31.60948184 56.31843681 31.61507972 54.43277304 31.63009469 52.54720287 C31.744226 37.27657484 29.15976933 25.45652212 18.19140625 14.1328125 C13.31864036 9.56398171 8.04648409 6.74559737 2 4 C0.66395119 3.33879217 -0.67034635 2.67397582 -2 2 C-1.34 1.34 -0.68 0.68 0 0 Z " fill="#EAEAEA" transform="translate(1366,754)"/>
<path d="M0 0 C1.1471947 -0.00322445 2.29438939 -0.00644889 3.47634757 -0.00977105 C4.75267282 -0.00822245 6.02899808 -0.00667385 7.34399986 -0.00507832 C8.70105884 -0.00694449 10.05811727 -0.00924441 11.41517484 -0.01194364 C15.16192665 -0.01809238 18.90865625 -0.01792445 22.65541196 -0.01674926 C26.68965265 -0.01654602 30.72388606 -0.02205681 34.7581234 -0.02680683 C42.66986471 -0.03513163 50.58159858 -0.03786253 58.4933439 -0.03841921 C64.92394465 -0.03889367 71.35454293 -0.0409449 77.7851429 -0.04411983 C96.00516073 -0.05293272 114.22517267 -0.05753842 132.44519265 -0.05678936 C133.42849672 -0.0567494 134.4118008 -0.05670945 135.42490196 -0.05666828 C136.90165376 -0.05660696 136.90165376 -0.05660696 138.40823893 -0.0565444 C154.35637732 -0.05613813 170.30449208 -0.06570123 186.25262363 -0.07980665 C202.61640035 -0.09416574 218.98016554 -0.10107704 235.34394872 -0.10021287 C244.53550041 -0.09988066 253.72702735 -0.1026382 262.91857338 -0.11339092 C270.74699581 -0.12248996 278.57538229 -0.12467622 286.40380771 -0.1178815 C290.39853267 -0.11461279 294.39318861 -0.11457216 298.38790703 -0.12323475 C302.04594503 -0.13108559 305.70385913 -0.12968282 309.36189406 -0.12095062 C311.31017909 -0.1186845 313.25846792 -0.12625557 315.20673811 -0.13419026 C324.51351389 -0.09738389 330.91397348 0.45864417 337.74277306 7.12863445 C340.18835933 10.75627002 339.99134529 14.10438835 339.98886871 18.39876461 C339.9911764 19.13613417 339.99348409 19.87350372 339.99586171 20.63321781 C340.00117851 23.11755866 339.99216375 25.60164312 339.98328209 28.08597088 C339.98415381 29.87958708 339.98590418 31.67320303 339.98846042 33.46681762 C339.99294448 38.40609567 339.98491574 43.34528743 339.9749043 48.28455448 C339.96628733 53.60696064 339.96918871 58.92936171 339.97070885 64.25177288 C339.97175881 73.4767221 339.96547058 82.70164308 339.95423317 91.9265852 C339.93799621 105.26438783 339.93277201 118.60217678 339.93025719 131.93998823 C339.92587725 153.57839888 339.91256004 175.21679448 339.89365196 196.85519695 C339.87530089 217.87798264 339.86114061 238.90076425 339.85263634 259.92355633 C339.85184817 261.86651411 339.85184817 261.86651411 339.85104407 263.84872356 C339.84843405 270.34672792 339.84590662 276.84473231 339.84342027 283.34273672 C339.82267846 337.27137971 339.7874448 391.20000635 339.74277306 445.12863445 C339.41277306 445.12863445 339.08277306 445.12863445 338.74277306 445.12863445 C338.74187742 443.7609036 338.74187742 443.7609036 338.7409637 442.36554182 C338.70508977 388.3544206 338.64848165 334.34335516 338.5648521 280.33228566 C338.55483434 273.85082794 338.54499026 267.36936995 338.53525352 260.8879118 C338.53331215 259.59754008 338.53137078 258.30716836 338.52937058 256.97769447 C338.49832776 236.06900388 338.48136356 215.16032427 338.46957883 194.25161497 C338.4571791 172.80617926 338.42970434 151.36080131 338.38815999 129.91540205 C338.36299089 116.67654514 338.34965827 103.43778398 338.35134348 90.1989028 C338.35137318 81.12732091 338.33679397 72.05583674 338.31060877 62.98429291 C338.29592387 57.74614928 338.28779318 52.50820606 338.29697037 47.27004528 C338.30522592 42.47698147 338.29518909 37.68432123 338.27043644 32.89131744 C338.26472843 31.15502651 338.26580573 29.41869764 338.27426061 27.68241791 C338.2847559 25.32566714 338.270758 22.97028437 338.25058174 20.61362553 C338.24906286 19.30359039 338.24754398 17.99355525 338.24597907 16.64382207 C337.64117737 12.41892929 336.52118478 10.35337558 333.74277306 7.12863445 C328.56924271 3.44647432 323.45999517 3.70458782 317.35295105 3.7438736 C316.30261305 3.73872369 315.25227504 3.73357378 314.17010862 3.72826782 C310.63314623 3.71459846 307.09655218 3.72234817 303.55957603 3.72990704 C301.00526804 3.72447043 298.45096256 3.71772007 295.89666116 3.70976514 C290.33426629 3.69456441 284.77194908 3.6904765 279.2095356 3.69364262 C270.93844088 3.69830028 262.66743424 3.68582185 254.39635688 3.66981289 C240.48334307 3.64337007 226.57034918 3.63085325 212.65731239 3.62624836 C198.87987147 3.62164293 185.10245821 3.61086314 171.32502937 3.59182072 C170.04050457 3.59005053 170.04050457 3.59005053 168.73002976 3.58824457 C164.38113563 3.58221923 160.03224166 3.57608341 155.68334775 3.56990507 C124.87292261 3.52633235 94.06249814 3.49662816 63.2520504 3.47507 C33.31844654 3.45409366 3.38485916 3.42684157 -26.54873085 3.39108562 C-27.47126825 3.38998615 -28.39380564 3.38888667 -29.34429872 3.38775387 C-38.60872229 3.37670563 -47.87314571 3.36552971 -57.13756902 3.35426025 C-76.01059419 3.33130558 -94.88362033 3.30920307 -113.75664711 3.28761578 C-114.62441552 3.28662216 -115.49218394 3.28562854 -116.38624837 3.28460481 C-174.3432278 3.21834014 -232.30022642 3.17200299 -290.25722694 3.12863445 C-290.25722694 2.79863445 -290.25722694 2.46863445 -290.25722694 2.12863445 C-289.65667128 2.1268982 -289.05611562 2.12516195 -288.4373613 2.12337309 C-252.88106475 2.02045116 -217.3247876 1.91236174 -181.76852751 1.79751751 C-177.50377445 1.78374715 -173.23902125 1.77002017 -168.97426796 1.75632 C-167.70065953 1.75222754 -167.70065953 1.75222754 -166.40132164 1.74805241 C-152.63476996 1.70392024 -138.86821002 1.66330635 -125.10164387 1.62398184 C-110.98664146 1.58358411 -96.87165444 1.53943066 -82.75667471 1.4917559 C-74.03980214 1.46243322 -65.32293079 1.43607603 -56.60603821 1.41345548 C-50.63684809 1.39768528 -44.66767683 1.37828276 -38.69850761 1.35596604 C-35.2493558 1.34317989 -31.8002186 1.33205058 -28.35104942 1.32521534 C-24.62040678 1.31699152 -20.88983649 1.30272563 -17.15921974 1.28685284 C-16.05710327 1.28587473 -14.95498679 1.28489662 -13.81947285 1.28388888 C-12.33255976 1.27567721 -12.33255976 1.27567721 -10.81560802 1.26729965 C-9.95326315 1.26464161 -9.09091828 1.26198357 -8.20244175 1.25924498 C-5.26070271 1.06172331 -3.36745187 0.00237619 0 0 Z " fill="#C3C3C3" transform="translate(998.2572269439697,286.8713655471802)"/>
<path d="M0 0 C1.38004342 0.09025005 2.76367445 0.13348272 4.14665604 0.1386652 C4.9697348 0.14413964 5.79281355 0.14961409 6.64083409 0.15525442 C7.53966463 0.15623253 8.43849516 0.15721064 9.36456299 0.15821838 C10.32353194 0.16315636 11.28250089 0.16809434 12.27052951 0.17318195 C15.49187468 0.18857056 18.7131999 0.1969213 21.93457031 0.20532227 C24.24055152 0.21489971 26.54653096 0.22490972 28.85250854 0.23532104 C35.12065557 0.26239059 41.38881014 0.28338908 47.65698338 0.30332303 C54.20466555 0.32516992 60.75232442 0.35256496 67.29998779 0.37937927 C78.29242881 0.42380909 89.28487944 0.46447764 100.27734375 0.50268555 C111.59961887 0.54204921 122.92188334 0.58347752 134.24414062 0.62768555 C134.9420467 0.63040982 135.63995277 0.63313409 136.35900751 0.63594092 C139.86019778 0.64962054 143.36138788 0.66334078 146.86257792 0.67708123 C175.90836276 0.79101904 204.95417167 0.89776129 234 1 C234 1.33 234 1.66 234 2 C232.79478069 2.00238835 231.58956139 2.00477671 230.34782028 2.00723743 C201.7044178 2.06466266 173.06108136 2.13743953 144.41776817 2.22898628 C140.88821298 2.24025373 137.3586574 2.2513923 133.82910156 2.26245117 C132.77514552 2.2657567 132.77514552 2.2657567 131.69989744 2.269129 C120.33986218 2.30445053 108.97982699 2.32934365 97.61975726 2.35034702 C85.95340658 2.37215015 74.2871304 2.40546375 62.62083936 2.44870156 C56.07221384 2.47261039 49.52366662 2.49135458 42.97499847 2.49761391 C36.80591841 2.50367522 30.63703866 2.52371336 24.46803284 2.55427551 C22.20905703 2.56303888 19.95005503 2.56678186 17.69106293 2.56500816 C0.79907019 2.55593608 -14.07729705 2.66606729 -27.1015625 14.98828125 C-35.87719068 24.60412914 -39.48194954 35.12255487 -39.37473011 48.09441566 C-39.37879084 49.06424196 -39.38285156 50.03406826 -39.38703534 51.03328323 C-39.39695513 54.27238835 -39.38556798 57.51105742 -39.3742218 60.75015259 C-39.37696327 63.10009484 -39.3810161 65.45003586 -39.38626546 67.79997385 C-39.39573964 73.57392292 -39.39128888 79.34774355 -39.38092325 85.12168835 C-39.36928714 92.0408153 -39.37512356 98.95989993 -39.38149153 105.8790298 C-39.39340891 119.43436063 -39.38833994 132.9896449 -39.37621326 146.54497315 C-39.36567437 158.40626122 -39.36113811 170.26753343 -39.36250877 182.12882614 C-39.3625928 182.91580906 -39.36267683 183.70279199 -39.36276341 184.51362288 C-39.36311566 187.70827283 -39.36349967 190.90292277 -39.36392899 194.09757271 C-39.3678932 224.05962639 -39.35517972 254.02165204 -39.33440243 283.98369771 C-39.31602968 310.60339669 -39.31022114 337.2230688 -39.31567383 363.84277344 C-39.31602026 365.55231892 -39.31636636 367.26186439 -39.31671212 368.97140987 C-39.31688311 369.8165772 -39.31705411 370.66174452 -39.31723029 371.53252298 C-39.31808383 375.78698464 -39.31890761 380.0414463 -39.31969929 384.29590797 C-39.31985637 385.13524912 -39.32001345 385.97459027 -39.32017529 386.83936599 C-39.32416491 409.08432668 -39.31869042 431.32928478 -39.310188 453.5742439 C-39.30928096 455.96765313 -39.30837531 458.36106236 -39.30747276 460.75447159 C-39.30687165 462.34218714 -39.30626303 463.92990268 -39.30564686 465.51761822 C-39.30142513 476.58728469 -39.30084737 487.65694608 -39.30275235 498.72661309 C-39.30519477 512.99033101 -39.30112773 527.25402169 -39.28554235 541.51773216 C-39.27819937 548.39660823 -39.27397234 555.27544996 -39.27878571 562.1543293 C-39.28285411 568.44828391 -39.27771939 574.74216063 -39.26515963 581.03610341 C-39.26222538 583.31587611 -39.26267383 585.59565612 -39.26680271 587.87542696 C-39.27189856 590.96946687 -39.26473592 594.06324503 -39.25447559 597.15726662 C-39.25887208 598.04626459 -39.26326856 598.93526256 -39.26779827 599.85119987 C-39.21798974 607.71560279 -37.66716636 614.24074996 -34.0625 621.3125 C-33.55847656 622.31925781 -33.05445313 623.32601562 -32.53515625 624.36328125 C-31.18294259 626.68578564 -29.89978843 628.15692167 -28 630 C-28 630.66 -28 631.32 -28 632 C-33.92000303 629.52482632 -36.39604637 624.22755821 -39.15034825 618.68520993 C-43.29397198 608.12134309 -42.55212854 597.09737626 -42.50120544 585.94013977 C-42.50510092 583.58093293 -42.51074333 581.22172843 -42.51797634 578.86252946 C-42.53117062 573.07336632 -42.52584388 567.28442942 -42.51258337 561.49527131 C-42.49773681 554.55630335 -42.5062166 547.61741232 -42.51536357 540.67844149 C-42.53253226 527.08500391 -42.52702977 513.49164712 -42.51200638 499.89821122 C-42.498946 488.00413177 -42.4937603 476.11008031 -42.49632454 464.21599388 C-42.49648495 463.42652087 -42.49664537 462.63704786 -42.49681065 461.82365142 C-42.49747425 458.61882144 -42.49817666 455.41399148 -42.49893599 452.20916152 C-42.50595668 422.15905836 -42.49047919 392.1090045 -42.46431253 362.05891389 C-42.44119151 335.36502542 -42.43581214 308.67119114 -42.44604492 281.97729492 C-42.44864697 275.13983061 -42.45123199 268.3023663 -42.45364285 261.46490192 C-42.45394029 260.6231101 -42.45423774 259.78131828 -42.4545442 258.91401762 C-42.46215912 236.60153288 -42.45574704 214.28905259 -42.44494683 191.97656983 C-42.44379903 189.57578218 -42.44265585 187.17499453 -42.44152 184.77420688 C-42.44076476 183.18162306 -42.43999911 181.58903925 -42.43922299 179.99645545 C-42.43356562 168.10818541 -42.43489392 156.2199294 -42.43945122 144.33165932 C-42.44455881 130.81588544 -42.43870678 117.30016403 -42.41855692 103.78440324 C-42.40853863 96.88714794 -42.40320176 89.98997046 -42.41144943 83.09271049 C-42.41849684 76.78086075 -42.41172335 70.46918349 -42.3938458 64.15735652 C-42.38979531 61.87224374 -42.39081121 59.58711528 -42.39736467 57.30200831 C-42.40550508 54.19827535 -42.39521395 51.09512496 -42.38031673 47.99142933 C-42.38705439 47.10242137 -42.39379204 46.21341342 -42.40073386 45.29746583 C-42.29095158 33.48593072 -37.07928078 21.63944425 -29 13 C-28.01 12.67 -27.02 12.34 -26 12 C-25.67 11.01 -25.34 10.02 -25 9 C-18.40488819 3.91117916 -8.40984278 -2.17226599 0 0 Z " fill="#CECECE" transform="translate(562,655)"/>
<path d="M0 0 C12.12604898 3.99246446 12.12604898 3.99246446 16 8 C16 8.66 16 9.32 16 10 C16.5775 10.07347656 17.155 10.14695312 17.75 10.22265625 C23.16813085 12.09454521 26.87967798 18.75608015 29.3359375 23.67578125 C30.31402245 26.09893155 31.19063473 28.51580957 32 31 C32.34102585 31.87250558 32.68205171 32.74501116 33.03341168 33.6439563 C34.15236368 37.52901442 34.27818462 41.11495835 34.25447559 45.11857414 C34.25928531 46.32579727 34.25928531 46.32579727 34.26419219 47.55740875 C34.2725057 50.25920061 34.26656316 52.96077157 34.26069641 55.66256714 C34.26371648 57.61720079 34.26760523 59.57183326 34.27228898 61.52646363 C34.2825964 66.9018289 34.28038017 72.27712769 34.27610838 77.65249848 C34.27364614 83.44810857 34.28264908 89.24370245 34.29014587 95.03930664 C34.30290887 106.39512098 34.30468457 117.75091169 34.30234561 129.106732 C34.30056408 138.33516619 34.30230855 147.56359319 34.30657005 156.79202652 C34.30716524 158.10442502 34.30776043 159.41682353 34.30837366 160.76899169 C34.30928161 162.76660855 34.31018957 164.76422542 34.31110601 166.76184228 C34.31953621 185.33591782 34.32387077 203.90999074 34.31969929 222.48406792 C34.31954291 223.18434584 34.31938654 223.88462376 34.31922542 224.60612222 C34.31841963 228.15543792 34.31757386 231.70475362 34.31671212 235.25406931 C34.31654103 235.9589791 34.31636994 236.66388888 34.31619367 237.39015957 C34.31584702 238.81565852 34.31549849 240.24115747 34.31514808 241.66665641 C34.30979068 263.84826192 34.31772157 286.02982769 34.33618164 308.21142578 C34.35689589 333.13085347 34.36762545 358.05025653 34.36360615 382.9696933 C34.36169181 396.16470434 34.36420432 409.35967915 34.37832069 422.55468369 C34.39021621 433.7876581 34.39165994 445.02057401 34.37953053 456.2535492 C34.373629 461.98612433 34.37257759 467.71859235 34.38453293 473.45116043 C34.39534817 478.69797422 34.39234039 483.9445909 34.37827124 489.1913953 C34.37561228 491.09040349 34.37802829 492.98942692 34.38600711 494.88842021 C34.39609824 497.46909957 34.38770402 500.04909178 34.37473011 502.62974358 C34.38203946 503.36747212 34.3893488 504.10520067 34.39687964 504.86528462 C34.27599242 516.46154383 27.83252546 526.95517955 19.9609375 535.11328125 C13.64749949 541.03631231 6.84136436 546.27033841 -2.125 546.3125 C-3.40375 546.209375 -4.6825 546.10625 -6 546 C-6 545.67 -6 545.34 -6 545 C-4.98292969 544.77957031 -4.98292969 544.77957031 -3.9453125 544.5546875 C2.4613962 543.01068845 7.49665748 540.82859804 13.00390625 537.20703125 C15 536 15 536 17 536 C17 535.34 17 534.68 17 534 C17.70125 533.34 18.4025 532.68 19.125 532 C26.74353585 524.7070426 30.7709054 514.62480527 31.12995183 504.24213922 C31.13734485 502.80272116 31.13935041 501.363269 31.13701439 499.92383385 C31.13966622 499.12359356 31.14231804 498.32335327 31.14505023 497.49886328 C31.15272042 494.81265599 31.15330153 492.12649459 31.15390015 489.4402771 C31.15791625 487.49674442 31.16235472 485.55321257 31.1671797 483.60968173 C31.17913418 478.26486295 31.18479102 472.9200532 31.18936086 467.57522368 C31.19532107 461.81225859 31.20692972 456.04930426 31.21765137 450.28634644 C31.24216343 436.36802032 31.25679956 422.44969065 31.26971143 408.5313496 C31.27342385 404.60038905 31.27739703 400.66942885 31.2814641 396.73846865 C31.30669807 372.32747697 31.328767 347.91648537 31.34119225 323.50548363 C31.34411345 317.8524513 31.347081 312.199419 31.35009766 306.54638672 C31.35046857 305.84408739 31.35083947 305.14178807 31.35122162 304.41820695 C31.36337646 281.64929067 31.39432144 258.88045171 31.43601918 236.11157174 C31.48003931 212.03057757 31.50572851 187.94962952 31.51111281 163.86859477 C31.51452705 150.74495811 31.52628429 137.62144348 31.55921555 124.4978447 C31.58721148 113.32279019 31.59821722 102.14788274 31.58702008 90.97279589 C31.58183264 85.2720499 31.58472644 79.57161191 31.60948563 73.87091064 C31.63197828 68.64845533 31.63123772 63.42652927 31.61228175 58.20406468 C31.60948184 56.31843681 31.61507972 54.43277304 31.63009469 52.54720287 C31.744226 37.27657484 29.15976933 25.45652212 18.19140625 14.1328125 C13.31864036 9.56398171 8.04648409 6.74559737 2 4 C0.66395119 3.33879217 -0.67034635 2.67397582 -2 2 C-1.34 1.34 -0.68 0.68 0 0 Z " fill="#D5D5D5" transform="translate(1366,754)"/>
<path d="M0 0 C0.33 0 0.66 0 1 0 C1 28.71 1 57.42 1 87 C-37.5625 87.25 -37.5625 87.25 -49.70922852 87.29785156 C-53.32295632 87.33109847 -53.32295632 87.33109847 -56.93663025 87.36956787 C-58.53793994 87.384119 -60.13933171 87.39095097 -61.7407074 87.39154053 C-64.17607096 87.39397031 -66.61004485 87.4213992 -69.04516602 87.45410156 C-69.75071153 87.44907749 -70.45625704 87.44405342 -71.18318272 87.43887711 C-76.14931095 87.54279597 -80.34824637 88.57686468 -84 92 C-87.42893644 97.02663445 -88.50118156 100.28647668 -88.51898193 106.48545837 C-88.52648319 107.20606101 -88.53398444 107.92666365 -88.541713 108.66910273 C-88.56189476 111.06607739 -88.55390678 113.46209749 -88.54589844 115.85913086 C-88.55463867 117.58428884 -88.56512603 119.30943872 -88.57722473 121.03457642 C-88.60505027 125.70556524 -88.60849018 130.37628908 -88.60750484 135.04734874 C-88.6106369 139.93344584 -88.63626123 144.81942412 -88.65948486 149.70545959 C-88.70002591 158.95233397 -88.72038114 168.19913786 -88.73345876 177.44608742 C-88.7493352 187.97573776 -88.78775357 198.50526826 -88.82805204 209.03484905 C-88.91042507 230.68985982 -88.96453343 252.34486493 -89 274 C-89.33 274 -89.66 274 -90 274 C-90.15399626 251.69491951 -90.30202679 229.38980653 -90.4429636 207.08463955 C-90.50854253 196.7278735 -90.57607046 186.37112701 -90.64819336 176.0144043 C-90.71105372 166.98705477 -90.77025037 157.95968991 -90.82505554 148.93228775 C-90.85419962 144.15277177 -90.88517287 139.37328349 -90.92053413 134.59380913 C-90.95377212 130.09349333 -90.98210424 125.59317308 -91.00670624 121.09280205 C-91.01658479 119.44285913 -91.02824156 117.79292572 -91.04183006 116.14300919 C-91.06015064 113.88586048 -91.07200088 111.62876437 -91.08229065 109.37156677 C-91.09058679 108.10963218 -91.09888292 106.84769758 -91.10743046 105.54752254 C-90.88229979 98.1133542 -90.20388056 94.20388056 -85 89 C-84.34 89 -83.68 89 -83 89 C-83 88.34 -83 87.68 -83 87 C-79.44907482 85.81635827 -76.21183153 85.83212079 -72.51513672 85.81054688 C-71.75552643 85.80225357 -70.99591614 85.79396027 -70.21328735 85.78541565 C-68.56491037 85.76802635 -66.91650882 85.75285647 -65.26809311 85.73963928 C-62.66312951 85.71861637 -60.05829002 85.69159547 -57.45339966 85.66296387 C-50.98620768 85.59312345 -44.51892788 85.5336365 -38.05163574 85.47393799 C-32.58378905 85.42309249 -27.11601033 85.36830617 -21.64825821 85.30812073 C-19.07508588 85.28146134 -16.50190747 85.2607015 -13.92868042 85.2401123 C-12.3611419 85.22351762 -10.79360628 85.20664652 -9.22607422 85.18945312 C-8.50502502 85.18526871 -7.78397583 85.18108429 -7.04107666 85.17677307 C-3.73697811 85.41771308 -3.73697811 85.41771308 -1 84 C-0.91026658 81.49028643 -0.88503457 79.00831608 -0.90234375 76.49853516 C-0.90380402 75.71316879 -0.90526428 74.92780243 -0.9067688 74.11863708 C-0.9105842 72.40745037 -0.91671055 70.69626766 -0.92483521 68.98509598 C-0.93754733 66.27898623 -0.94410138 63.57292523 -0.94897461 60.86679077 C-0.96238029 54.1432444 -0.98655608 47.4197441 -1.01037598 40.69622803 C-1.03007984 35.02163329 -1.04573401 29.34705577 -1.05593872 23.67243576 C-1.06243586 21.00291628 -1.07494608 18.33346709 -1.08764648 15.66397095 C-1.09127876 14.02939923 -1.09463052 12.39482686 -1.09765625 10.76025391 C-1.10282257 10.01520096 -1.10798889 9.27014801 -1.11331177 8.5025177 C-1.11363264 5.38815606 -0.99300582 2.97901747 0 0 Z " fill="#E7E7E7" transform="translate(693,304)"/>
<path d="M0 0 C1.98299863 3.96599726 2.25525741 5.46756264 2.2746582 9.73071289 C2.28895622 11.45754051 2.28895622 11.45754051 2.30354309 13.21925354 C2.30263168 14.45787643 2.30172028 15.69649933 2.30078125 16.97265625 C2.30506638 18.24725204 2.3093515 19.52184784 2.31376648 20.83506775 C2.31950945 23.5292643 2.32094525 26.22307764 2.31567383 28.91723633 C2.30986893 32.3697225 2.32683956 35.82167398 2.3500185 39.27407169 C2.36828433 42.56942945 2.36457108 45.86475695 2.36328125 49.16015625 C2.372491 50.40080338 2.38170074 51.6414505 2.39118958 52.91969299 C2.38496078 54.06775925 2.37873199 55.2158255 2.37231445 56.39868164 C2.37294388 57.41031876 2.3735733 58.42195587 2.3742218 59.46424866 C1.9400224 62.40641215 1.32408998 63.22034348 -1 65 C-7.14788678 68.89435396 -13.54097479 71.71708242 -20.4140625 74.05078125 C-22.9223027 74.97147969 -25.20296092 76.06458493 -27.5625 77.3125 C-28.696875 77.869375 -29.83125 78.42625 -31 79 C-31.66 78.67 -32.32 78.34 -33 78 C-30.04884955 75.14722123 -27.53161502 73.74618683 -23.625 72.75 C-17.31044915 71.05469072 -11.89920019 67.89730709 -6.22265625 64.7421875 C-3 63 -3 63 0 62 C0 41.54 0 21.08 0 0 Z " fill="#F1F1F1" transform="translate(602,574)"/>
<path d="M0 0 C-0.33 0.99 -0.66 1.98 -1 3 C-3.3112778 4.01099765 -5.56010018 4.86711348 -7.9375 5.6875 C-19.04493416 9.8554224 -27.30977837 16.40441489 -33 27 C-34.57058797 30.94278167 -35.86877859 34.91073999 -37 39 C-39 36 -39 36 -38.78515625 34.125 C-36.22494997 26.59660965 -32.20421253 18.20464495 -26 13 C-25.34 13 -24.68 13 -24 13 C-23.67 12.01 -23.34 11.02 -23 10 C-17.02067941 5.3863267 -7.7469917 0 0 0 Z " fill="#E4E4E4" transform="translate(560,654)"/>
<path d="M0 0 C0.99 0 1.98 0 3 0 C3.33 0.66 3.66 1.32 4 2 C5.4750316 2.643863 6.98180097 3.21581886 8.5 3.75 C14.65584741 6.10266582 20.31538121 9.31538121 25 14 C25 14.99 25 15.98 25 17 C25.66 17 26.32 17 27 17 C28.70680947 18.62553283 30.37660195 20.29115995 32 22 C31.67 22.66 31.34 23.32 31 24 C30.34 24 29.68 24 29 24 C29 23.34 29 22.68 29 22 C28.071875 21.773125 27.14375 21.54625 26.1875 21.3125 C22.34947068 19.73213498 21.97240748 18.53389674 20 15 C15.66493517 10.77331179 10.89059958 8.22476687 5.48828125 5.52734375 C2.91890222 3.95022098 1.61684881 2.51449731 0 0 Z " fill="#FEFEFE" transform="translate(1340,733)"/>
<path d="M0 0 C0.33 0 0.66 0 1 0 C0.8573246 7.70447171 -2.21451482 12.11462508 -7 18 C-7.515625 18.64195313 -8.03125 19.28390625 -8.5625 19.9453125 C-13.91877523 25.91755938 -21.84350362 31.20560166 -29.83984375 32.4375 C-32.3125 32.4375 -32.3125 32.4375 -36 32 C-36 31.67 -36 31.34 -36 31 C-35.32195312 30.85304688 -34.64390625 30.70609375 -33.9453125 30.5546875 C-27.5386038 29.01068845 -22.50334252 26.82859804 -16.99609375 23.20703125 C-15 22 -15 22 -13 22 C-13 21.34 -13 20.68 -13 20 C-12.29875 19.34 -11.5975 18.68 -10.875 18 C-5.78790396 13.13030123 -2.45862941 6.52527237 0 0 Z " fill="#E1E1E1" transform="translate(1396,1268)"/>
<path d="M0 0 C12.12604898 3.99246446 12.12604898 3.99246446 16 8 C16 8.66 16 9.32 16 10 C16.598125 10.0825 17.19625 10.165 17.8125 10.25 C20.65361183 11.22409548 21.54982079 12.40494247 23 15 C22.67 15.99 22.34 16.98 22 18 C21.39865234 17.32904297 21.39865234 17.32904297 20.78515625 16.64453125 C14.24759315 9.69188478 6.9319194 6.08557216 -2 3 C-1.34 2.01 -0.68 1.02 0 0 Z " fill="#DEDEDE" transform="translate(1366,754)"/>
<path d="M0 0 C3.72012968 2.208827 7.38425069 4.49573162 11.03515625 6.81640625 C15.38184586 9.43478985 19.23719527 10.60387311 24.25 11.625 C25.51328125 11.88539062 26.7765625 12.14578125 28.078125 12.4140625 C29.04234375 12.60742188 30.0065625 12.80078125 31 13 C31 13.66 31 14.32 31 15 C20.11026569 15.44447895 10.73816726 10.97855418 2.3125 4.25 C1.549375 3.5075 0.78625 2.765 0 2 C0 1.34 0 0.68 0 0 Z " fill="#E2E2E2" transform="translate(534,1287)"/>
<path d="M0 0 C0.33 0.66 0.66 1.32 1 2 C-4.93359139 5.8613393 -10.66749584 8.79460499 -17.37890625 11.05078125 C-19.90581855 11.96589256 -22.19041235 13.0556796 -24.5625 14.3125 C-25.696875 14.869375 -26.83125 15.42625 -28 16 C-28.66 15.67 -29.32 15.34 -30 15 C-27.04884955 12.14722123 -24.53161502 10.74618683 -20.625 9.75 C-13.1920806 7.75662616 -6.66797487 3.74295656 0 0 Z " fill="#FFFFFF" transform="translate(599,637)"/>
<path d="M0 0 C0.66 0 1.32 0 2 0 C2.20625 1.0725 2.4125 2.145 2.625 3.25 C4.40316793 10.40104944 7.68321644 17.84192639 13 23 C13 23.66 13 24.32 13 25 C7.2362771 22.63475734 4.5812083 17.25058808 1.94921875 11.83984375 C0.30551337 7.79679593 -0.32589371 4.34524945 0 0 Z " fill="#DFDFDF" transform="translate(521,1262)"/>
<path d="M0 0 C4.87990172 0.13555283 7.5824619 2.73435248 11 6 C13.31503104 9.26208919 13.17874634 12.06758042 13 16 C12.7525 15.46375 12.505 14.9275 12.25 14.375 C11.8375 13.59125 11.425 12.8075 11 12 C10.484375 11.01 9.96875 10.02 9.4375 9 C6.21744578 5.03685634 2.71662593 3.71330429 -2 2 C-1.34 1.34 -0.68 0.68 0 0 Z " fill="#E3E3E3" transform="translate(1325,288)"/>
<path d="M0 0 C0.66 0 1.32 0 2 0 C0.80781735 2.48371385 -0.48177424 4.77705522 -1.9375 7.125 C-4.46909211 11.47706284 -5.71465323 16.16047467 -7 21 C-9 18 -9 18 -8.75 16.0546875 C-6.72292539 10.16350192 -4.05823402 4.78170749 0 0 Z " fill="#E1E1E1" transform="translate(530,672)"/>
<path d="M0 0 C0.66 0.33 1.32 0.66 2 1 C0.98679687 1.99580078 0.98679687 1.99580078 -0.046875 3.01171875 C-1.38492188 4.33623047 -1.38492188 4.33623047 -2.75 5.6875 C-3.63171875 6.55761719 -4.5134375 7.42773438 -5.421875 8.32421875 C-7.78805298 10.78002468 -9.91892556 13.30141048 -12 16 C-12.66 15.67 -13.32 15.34 -14 15 C-4.58997722 4.44191344 -4.58997722 4.44191344 0 0 Z " fill="#D8D8D8" transform="translate(730,890)"/>
<path d="M0 0 C1.98 0 3.96 0 6 0 C5.2575 0.5775 4.515 1.155 3.75 1.75 C1.33530498 3.72565956 -0.83465854 5.75999159 -3 8 C-3.66 8.66 -4.32 9.32 -5 10 C-4.75 7.125 -4.75 7.125 -4 4 C-1.9375 2.625 -1.9375 2.625 0 2 C0 1.34 0 0.68 0 0 Z " fill="#E1E1E1" transform="translate(610,391)"/>
<path d="M0 0 C0.66 0.33 1.32 0.66 2 1 C-0.28431738 3.35800504 -2.0081024 4.88720897 -5.3359375 5.265625 C-7.56920205 5.251535 -9.77382441 5.17460201 -12 5 C-12 4.67 -12 4.34 -12 4 C-11.21753906 3.79503906 -10.43507813 3.59007812 -9.62890625 3.37890625 C-8.61699219 3.10949219 -7.60507813 2.84007812 -6.5625 2.5625 C-5.55316406 2.29566406 -4.54382812 2.02882813 -3.50390625 1.75390625 C-1.08247999 1.24021923 -1.08247999 1.24021923 0 0 Z " fill="#D4D4D4" transform="translate(1372,1295)"/>
<path d="M0 0 C2.97 0.99 5.94 1.98 9 3 C8.67 3.99 8.34 4.98 8 6 C4.7 5.01 1.4 4.02 -2 3 C-1.34 2.01 -0.68 1.02 0 0 Z " fill="#D8D8D8" transform="translate(1366,754)"/>
<path d="M0 0 C3 1 3 1 4 3 C4.04022391 5.3329866 4.04320247 7.66706666 4 10 C2.26337666 6.77484237 1.1094072 3.48670834 0 0 Z " fill="#E2E2E2" transform="translate(1393,778)"/>
<path d="M0 0 C3.68754757 0.49831724 5.60490662 1.10067643 8 4 C5.6875 4.25 5.6875 4.25 3 4 C1.1875 2 1.1875 2 0 0 Z " fill="#EBEBEB" transform="translate(1373,758)"/>
<path d="M0 0 C0.33 0.99 0.66 1.98 1 3 C-0.32 4.32 -1.64 5.64 -3 7 C-3.99 6.67 -4.98 6.34 -6 6 C-4.71034824 4.62437146 -3.37310707 3.29233607 -2 2 C-1.34 2 -0.68 2 0 2 C0 1.34 0 0.68 0 0 Z " fill="#F0F0F0" transform="translate(536,665)"/>
<path d="M0 0 C-0.33 0.99 -0.66 1.98 -1 3 C-2.98 3.33 -4.96 3.66 -7 4 C-6.67 3.01 -6.34 2.02 -6 1 C-3.90006779 0.25486277 -2.22568901 0 0 0 Z " fill="#F3F3F3" transform="translate(560,654)"/>
</svg>
